<svg width="18" height="18" viewBox="0 0 18 18" fill="none" xmlns="http://www.w3.org/2000/svg">
<path d="M11 18C10.4477 18 10 17.5523 10 17V9C10 8.44772 10.4477 8 11 8H17C17.5523 8 18 8.44771 18 9V17C18 17.5523 17.5523 18 17 18H11ZM1 10C0.447715 10 0 9.55229 0 9V1C0 0.447715 0.447715 0 1 0H7C7.55228 0 8 0.447715 8 1V9C8 9.55228 7.55228 10 7 10H1ZM5.5 8C5.77614 8 6 7.77614 6 7.5V2.5C6 2.22386 5.77614 2 5.5 2H2.5C2.22386 2 2 2.22386 2 2.5V7.5C2 7.77614 2.22386 8 2.5 8H5.5ZM1 18C0.447715 18 0 17.5523 0 17V13C0 12.4477 0.447715 12 1 12H7C7.55228 12 8 12.4477 8 13V17C8 17.5523 7.55228 18 7 18H1ZM2 15.5C2 15.7761 2.22386 16 2.5 16H5.5C5.77614 16 6 15.7761 6 15.5V14.5C6 14.2239 5.77614 14 5.5 14H2.5C2.22386 14 2 14.2239 2 14.5V15.5ZM12 15.5C12 15.7761 12.2239 16 12.5 16H15.5C15.7761 16 16 15.7761 16 15.5V10.5C16 10.2239 15.7761 10 15.5 10H12.5C12.2239 10 12 10.2239 12 10.5V15.5ZM10 1C10 0.447715 10.4477 0 11 0H17C17.5523 0 18 0.447715 18 1V5C18 5.55228 17.5523 6 17 6H11C10.4477 6 10 5.55228 10 5V1ZM12.5 2C12.2239 2 12 2.22386 12 2.5V3.5C12 3.77614 12.2239 4 12.5 4H15.5C15.7761 4 16 3.77614 16 3.5V2.5C16 2.22386 15.7761 2 15.5 2H12.5Z" fill="white"/>
</svg>
