<?xml version="1.0" encoding="utf-8"?>
<!-- Generator: Adobe Illustrator 25.4.1, SVG Export Plug-In . SVG Version: 6.00 Build 0)  -->
<svg version="1.0" id="katman_1" xmlns="http://www.w3.org/2000/svg" xmlns:xlink="http://www.w3.org/1999/xlink" x="0px" y="0px"
	 viewBox="0 0 1700 1200" style="enable-background:new 0 0 1700 1200;" xml:space="preserve">
<style type="text/css">
	.st0{fill:#8DC351;}
	.st1{fill:#FFFFFF;}
</style>
<path class="st0" d="M850,1104.5c278.4,0,504-225.6,504-504c0-278.4-225.6-504-504-504c-278.4,0-504,225.6-504,504
	C346,878.9,571.6,1104.5,850,1104.5z"/>
<path class="st1" d="M995.2,444.1c-22.2-56.3-77.7-61.4-142.4-48.8l-23-80.3l-48.9,14l22.4,78.2c-12.9,3.7-25.9,7.7-38.9,11.7
	l-22.5-78.7l-48.9,14l23,80.3c-10.5,3.2-20.9,6.4-31,9.3l-0.1-0.3l-67.5,19.3l15,52.2c0,0,35.9-11,35.5-10.2
	c19.8-5.7,29.5,4,34.3,13.4l26.3,91.5c1.4-0.4,3.1-0.8,5.3-1.2l-5.2,1.5l36.8,128.2c0.9,6.5,0.1,17.5-13.8,21.5
	c0.8,0.4-35.5,10.2-35.5,10.2l7,61.2l63.7-18.2c11.8-3.4,23.5-6.5,35-9.7l23.3,81.2l48.8-14l-23-80.3c13.5-3.6,26.5-7.2,39.2-10.8
	l22.9,80l48.9-14l-23.2-81.1c80.9-28.3,132.5-65.5,117.5-144.7c-12-63.8-49.2-83.2-99.1-81C1001,515.9,1011.5,485.3,995.2,444.1z
	 M976.5,637.5c17.5,60.7-88.5,83.6-121.6,93.1L824.1,623C857.2,613.5,958.4,574.2,976.5,637.5z M910.3,492.1
	c15.8,55.2-72.7,73.6-100.3,81.6l-28-97.6C809.5,468.2,893.7,434.5,910.3,492.1z"/>
</svg>
