<svg id="svg" version="1.1" xmlns="http://www.w3.org/2000/svg" xmlns:xlink="http://www.w3.org/1999/xlink" width="400" height="400" viewBox="0, 0, 400,400"><g id="svgg"><path id="path0" d="M92.900 139.887 C 93.505 139.978,94.495 139.978,95.100 139.887 C 95.705 139.795,95.210 139.720,94.000 139.720 C 92.790 139.720,92.295 139.795,92.900 139.887 M305.705 139.887 C 306.314 139.979,307.214 139.977,307.705 139.882 C 308.197 139.787,307.700 139.711,306.600 139.714 C 305.500 139.717,305.097 139.795,305.705 139.887 M313.200 142.125 C 313.200 142.194,313.785 142.779,314.500 143.425 L 315.800 144.600 314.625 143.300 C 313.530 142.088,313.200 141.816,313.200 142.125 M289.400 149.844 L 287.800 151.276 289.500 150.004 C 290.963 148.910,291.491 148.383,291.100 148.406 C 291.045 148.409,290.280 149.056,289.400 149.844 M101.714 168.600 C 101.717 169.700,101.795 170.103,101.887 169.495 C 101.979 168.886,101.977 167.986,101.882 167.495 C 101.787 167.003,101.711 167.500,101.714 168.600 M298.597 213.400 L 298.600 260.200 308.000 260.211 L 317.400 260.222 308.102 260.104 L 298.803 259.986 298.699 213.293 L 298.595 166.600 298.597 213.400 M136.000 168.506 C 136.000 168.594,136.765 169.274,137.700 170.017 C 138.635 170.760,139.146 171.052,138.836 170.665 C 138.251 169.937,136.000 168.223,136.000 168.506 M105.567 169.345 C 106.100 170.001,107.600 170.993,107.600 170.689 C 107.600 170.613,107.015 170.122,106.300 169.599 C 105.496 169.010,105.216 168.913,105.567 169.345 M113.200 175.085 C 113.200 175.434,114.799 176.538,115.000 176.328 C 115.067 176.257,114.689 175.877,114.161 175.481 C 113.632 175.086,113.200 174.908,113.200 175.085 M252.167 177.829 L 250.600 179.258 252.300 177.962 C 253.853 176.778,254.232 176.400,253.867 176.400 C 253.793 176.400,253.028 177.043,252.167 177.829 M152.800 181.311 C 152.800 181.387,153.385 181.878,154.100 182.401 C 154.904 182.990,155.184 183.087,154.833 182.655 C 154.300 181.999,152.800 181.007,152.800 181.311 M244.167 183.829 L 242.600 185.258 244.300 183.962 C 245.853 182.778,246.232 182.400,245.867 182.400 C 245.793 182.400,245.028 183.043,244.167 183.829 M275.400 183.857 L 274.200 184.885 275.500 184.156 C 276.215 183.755,276.800 183.286,276.800 183.114 C 276.800 182.675,276.746 182.703,275.400 183.857 M126.767 185.345 C 127.300 186.001,128.800 186.993,128.800 186.689 C 128.800 186.613,128.215 186.122,127.500 185.599 C 126.696 185.010,126.416 184.913,126.767 185.345 M131.600 188.946 C 131.600 189.056,132.140 189.530,132.800 190.000 C 133.460 190.470,134.000 190.764,134.000 190.654 C 134.000 190.544,133.460 190.070,132.800 189.600 C 132.140 189.130,131.600 188.836,131.600 188.946 M267.400 189.857 L 266.200 190.885 267.500 190.156 C 268.215 189.755,268.800 189.286,268.800 189.114 C 268.800 188.675,268.746 188.703,267.400 189.857 M134.767 191.345 C 135.300 192.001,136.800 192.993,136.800 192.689 C 136.800 192.613,136.215 192.122,135.500 191.599 C 134.696 191.010,134.416 190.913,134.767 191.345 M167.078 192.166 C 167.695 192.697,168.270 193.062,168.357 192.976 C 168.551 192.783,166.721 191.232,166.278 191.213 C 166.100 191.206,166.460 191.635,167.078 192.166 M139.600 194.946 C 139.600 195.056,140.140 195.530,140.800 196.000 C 141.460 196.470,142.000 196.764,142.000 196.654 C 142.000 196.544,141.460 196.070,140.800 195.600 C 140.140 195.130,139.600 194.836,139.600 194.946 M142.400 197.102 C 142.400 197.281,142.940 197.746,143.600 198.136 C 144.260 198.526,144.800 198.779,144.800 198.698 C 144.800 198.617,144.260 198.151,143.600 197.663 C 142.940 197.175,142.400 196.923,142.400 197.102 M175.078 198.166 C 175.695 198.697,176.270 199.062,176.357 198.976 C 176.551 198.783,174.721 197.232,174.278 197.213 C 174.100 197.206,174.460 197.635,175.078 198.166 M254.200 199.850 C 253.481 200.462,253.334 200.705,253.833 200.457 C 254.566 200.093,255.941 198.776,255.549 198.814 C 255.467 198.822,254.860 199.288,254.200 199.850 M219.722 202.229 L 218.600 203.258 219.900 202.354 C 220.615 201.857,221.200 201.393,221.200 201.325 C 221.200 201.009,220.758 201.280,219.722 202.229 M249.000 203.835 L 247.800 204.866 249.100 204.006 C 249.815 203.533,250.400 203.068,250.400 202.973 C 250.400 202.673,250.231 202.778,249.000 203.835 M246.200 205.850 C 245.481 206.462,245.334 206.705,245.833 206.457 C 246.566 206.093,247.941 204.776,247.549 204.814 C 247.467 204.822,246.860 205.288,246.200 205.850 M241.000 209.835 L 239.800 210.866 241.100 210.006 C 241.815 209.533,242.400 209.068,242.400 208.973 C 242.400 208.673,242.231 208.778,241.000 209.835 M209.579 211.855 C 209.358 212.436,209.252 212.985,209.343 213.076 C 209.433 213.167,209.699 212.692,209.933 212.020 C 210.453 210.528,210.139 210.382,209.579 211.855 M238.200 211.857 L 237.000 212.885 238.300 212.156 C 239.015 211.755,239.600 211.286,239.600 211.114 C 239.600 210.675,239.546 210.703,238.200 211.857 M233.000 215.835 L 231.800 216.866 233.100 216.006 C 233.815 215.533,234.400 215.068,234.400 214.973 C 234.400 214.673,234.231 214.778,233.000 215.835 M230.200 217.857 L 229.000 218.885 230.300 218.156 C 231.015 217.755,231.600 217.286,231.600 217.114 C 231.600 216.675,231.546 216.703,230.200 217.857 M228.267 219.467 C 228.120 219.613,228.000 228.790,228.000 239.859 L 228.000 259.986 218.500 260.104 L 209.000 260.223 218.600 260.211 L 228.200 260.200 228.400 239.700 C 228.510 228.425,228.585 219.200,228.567 219.200 C 228.548 219.200,228.413 219.320,228.267 219.467 M172.594 240.100 L 172.600 260.200 182.000 260.211 L 191.400 260.222 182.104 260.104 L 172.807 259.986 172.698 239.993 L 172.589 220.000 172.594 240.100 M101.995 251.800 L 101.800 259.800 92.400 260.011 L 83.000 260.222 92.513 260.311 C 99.936 260.380,102.068 260.288,102.221 259.888 C 102.330 259.607,102.367 255.872,102.304 251.588 L 102.190 243.800 101.995 251.800 M76.484 357.015 C 75.932 357.642,76.079 357.720,77.775 357.701 C 78.630 357.691,79.311 358.247,79.698 359.269 C 79.861 359.701,80.233 359.864,80.748 359.729 C 81.401 359.559,81.506 359.674,81.324 360.369 C 81.136 361.087,81.003 361.139,80.451 360.708 C 79.873 360.257,79.861 360.277,80.345 360.896 C 80.645 361.278,81.024 361.509,81.187 361.408 C 81.350 361.307,81.903 361.671,82.415 362.216 C 83.048 362.889,83.596 363.128,84.123 362.961 C 84.638 362.798,84.807 362.865,84.625 363.160 C 84.473 363.405,84.630 363.713,84.972 363.845 C 85.315 363.976,85.478 364.273,85.335 364.505 C 85.170 364.772,85.390 364.844,85.937 364.700 C 86.412 364.576,86.800 364.638,86.800 364.837 C 86.800 365.037,87.070 365.200,87.400 365.200 C 87.730 365.200,88.000 365.391,88.000 365.624 C 88.000 365.857,87.792 365.919,87.538 365.762 C 87.258 365.588,87.185 365.652,87.352 365.923 C 87.540 366.226,87.945 366.249,88.614 365.995 C 89.244 365.755,89.600 365.761,89.600 366.010 C 89.600 366.224,89.426 366.400,89.213 366.400 C 88.999 366.400,88.935 366.685,89.068 367.034 C 89.264 367.544,89.377 367.563,89.650 367.134 C 89.891 366.753,89.990 366.739,89.994 367.087 C 89.998 367.377,90.270 367.471,90.666 367.319 C 91.103 367.152,91.235 367.219,91.051 367.517 C 90.877 367.799,91.266 368.112,92.086 368.349 C 92.809 368.557,93.177 368.744,92.904 368.764 C 92.564 368.789,92.624 369.052,93.093 369.600 C 93.844 370.478,95.049 370.728,94.539 369.900 C 94.369 369.625,94.785 369.850,95.463 370.400 C 96.141 370.950,96.619 371.535,96.524 371.700 C 96.359 371.990,97.021 372.166,97.759 372.028 C 97.956 371.991,98.823 372.527,99.684 373.219 C 100.546 373.912,101.554 374.530,101.925 374.592 C 102.296 374.655,102.557 374.902,102.504 375.142 C 102.436 375.449,102.720 375.459,103.463 375.176 C 104.389 374.824,104.456 374.850,104.011 375.387 C 103.547 375.946,103.713 376.172,104.500 376.047 C 104.665 376.021,104.800 376.161,104.800 376.357 C 104.800 376.554,105.079 376.822,105.421 376.953 C 105.777 377.089,105.937 377.022,105.797 376.795 C 105.330 376.040,105.974 376.406,107.034 377.500 C 107.621 378.105,107.978 378.375,107.827 378.100 C 107.676 377.825,107.743 377.600,107.976 377.600 C 108.209 377.600,108.400 377.840,108.400 378.133 C 108.400 378.427,108.625 378.674,108.900 378.682 C 109.615 378.705,110.566 378.966,110.800 379.203 C 111.392 379.804,115.120 381.547,115.341 381.326 C 115.483 381.183,115.600 381.377,115.600 381.757 C 115.600 382.137,115.768 382.344,115.972 382.217 C 116.177 382.091,116.458 382.170,116.596 382.393 C 116.734 382.617,117.297 382.800,117.847 382.800 C 118.412 382.800,118.740 382.974,118.600 383.200 C 118.462 383.424,118.770 383.600,119.300 383.600 C 119.821 383.600,120.596 383.864,121.024 384.187 C 121.451 384.510,122.123 384.780,122.517 384.787 C 122.911 384.794,123.606 385.147,124.061 385.571 C 124.516 385.994,125.156 386.238,125.484 386.112 C 125.812 385.986,126.205 386.085,126.358 386.332 C 126.510 386.578,127.077 386.861,127.617 386.960 C 128.158 387.059,128.600 387.168,128.600 387.201 C 128.600 387.234,128.924 387.323,129.321 387.398 C 129.717 387.474,130.476 387.820,131.007 388.168 C 131.538 388.515,132.439 388.800,133.010 388.800 C 133.599 388.800,133.941 388.973,133.800 389.200 C 133.664 389.420,133.913 389.600,134.353 389.600 C 134.793 389.600,135.276 389.799,135.426 390.043 C 135.617 390.351,135.804 390.321,136.044 389.943 C 136.297 389.543,136.389 389.532,136.394 389.900 C 136.397 390.175,136.591 390.400,136.824 390.400 C 137.057 390.400,137.116 390.175,136.955 389.900 C 136.794 389.625,137.023 389.715,137.463 390.100 C 137.903 390.485,138.474 390.800,138.731 390.800 C 138.989 390.800,139.200 390.980,139.200 391.200 C 139.200 391.420,139.391 391.600,139.624 391.600 C 139.857 391.600,139.912 391.375,139.747 391.100 C 139.543 390.760,139.663 390.776,140.123 391.149 C 140.495 391.451,140.800 391.582,140.800 391.440 C 140.800 391.298,141.229 391.463,141.753 391.806 C 142.278 392.150,142.863 392.395,143.053 392.350 C 143.581 392.226,145.736 392.860,146.300 393.304 C 146.575 393.521,146.800 393.596,146.800 393.471 C 146.800 393.345,147.704 393.512,148.809 393.840 C 149.914 394.168,151.022 394.310,151.271 394.156 C 151.548 393.985,151.613 394.055,151.438 394.338 C 151.238 394.662,151.706 394.800,153.000 394.800 C 154.016 394.800,154.753 394.953,154.637 395.140 C 154.522 395.326,154.989 395.495,155.675 395.514 C 156.361 395.534,157.029 395.709,157.161 395.904 C 157.292 396.099,157.895 396.272,158.500 396.289 C 159.105 396.306,159.645 396.353,159.700 396.393 C 159.755 396.434,160.498 396.539,161.352 396.628 C 162.206 396.716,163.185 397.016,163.529 397.294 C 164.050 397.716,164.098 397.701,163.818 397.200 C 163.545 396.712,163.583 396.693,164.021 397.100 C 164.318 397.375,165.304 397.600,166.213 397.600 C 167.123 397.600,167.990 397.724,168.141 397.875 C 168.450 398.184,168.883 398.245,173.400 398.617 C 175.160 398.762,176.773 398.987,176.985 399.117 C 178.528 400.062,221.414 400.073,223.009 399.128 C 223.320 398.944,228.858 398.315,231.072 398.212 C 231.331 398.200,231.676 398.057,231.838 397.895 C 232.001 397.733,232.877 397.600,233.787 397.600 C 234.696 397.600,235.682 397.375,235.979 397.100 C 236.416 396.694,236.458 396.712,236.200 397.200 C 235.942 397.688,235.984 397.706,236.421 397.300 C 236.718 397.025,237.633 396.800,238.456 396.800 C 239.279 396.800,240.054 396.636,240.178 396.435 C 240.302 396.235,240.988 396.152,241.702 396.252 C 242.676 396.388,242.850 396.331,242.400 396.023 C 241.944 395.711,242.192 395.611,243.433 395.606 C 244.332 395.603,245.202 395.465,245.367 395.300 C 245.532 395.135,245.787 394.991,245.933 394.979 C 247.922 394.826,250.811 394.278,250.623 394.090 C 250.489 393.955,251.329 393.595,252.489 393.289 C 253.650 392.982,254.780 392.684,255.000 392.626 C 255.220 392.568,255.670 392.419,256.000 392.294 C 257.093 391.880,258.994 391.467,259.378 391.560 C 259.586 391.611,260.126 391.474,260.578 391.256 C 261.030 391.039,262.435 390.553,263.700 390.176 C 264.965 389.799,266.000 389.365,266.000 389.212 C 266.000 389.059,266.225 388.916,266.500 388.896 C 266.775 388.875,267.720 388.583,268.600 388.247 C 269.480 387.910,270.515 387.627,270.900 387.618 C 271.285 387.608,271.600 387.390,271.600 387.133 C 271.600 386.877,271.714 386.780,271.853 386.919 C 271.992 387.058,272.487 386.954,272.953 386.688 C 273.419 386.422,273.992 386.200,274.228 386.195 C 274.707 386.186,278.089 384.739,278.400 384.411 C 278.510 384.295,278.780 384.180,279.000 384.157 C 279.939 384.054,281.200 383.480,281.200 383.153 C 281.200 382.959,281.635 382.800,282.167 382.800 C 282.698 382.800,283.197 382.610,283.274 382.378 C 283.351 382.146,283.708 381.913,284.067 381.861 C 284.426 381.808,285.042 381.503,285.436 381.182 C 285.948 380.767,286.062 380.752,285.835 381.130 C 285.573 381.565,285.662 381.568,286.332 381.149 C 286.781 380.869,287.061 380.498,286.953 380.325 C 286.846 380.151,287.028 380.113,287.359 380.239 C 287.689 380.366,288.362 380.094,288.855 379.635 C 289.348 379.176,290.077 378.800,290.475 378.800 C 290.874 378.800,291.200 378.601,291.200 378.357 C 291.200 378.114,291.461 378.014,291.780 378.137 C 292.181 378.291,292.286 378.167,292.119 377.733 C 291.932 377.246,292.064 377.167,292.715 377.373 C 293.574 377.646,294.680 376.413,294.098 375.831 C 293.948 375.681,294.134 375.676,294.512 375.822 C 294.907 375.973,295.200 375.897,295.200 375.643 C 295.200 375.399,295.614 375.200,296.120 375.200 C 296.626 375.200,297.256 374.984,297.520 374.720 C 297.784 374.456,298.000 374.394,298.000 374.581 C 298.000 374.769,298.315 374.562,298.700 374.121 C 299.085 373.680,299.707 373.365,300.083 373.422 C 300.458 373.478,300.975 373.271,301.232 372.962 C 301.488 372.653,301.946 372.400,302.249 372.400 C 302.552 372.400,302.800 372.209,302.800 371.976 C 302.800 371.743,302.980 371.664,303.200 371.800 C 303.420 371.936,303.600 371.857,303.600 371.624 C 303.600 371.391,303.767 371.245,303.972 371.300 C 304.176 371.355,304.640 371.040,305.001 370.600 C 305.363 370.160,305.547 370.023,305.409 370.295 C 305.244 370.621,305.370 370.709,305.777 370.554 C 306.117 370.423,306.305 370.171,306.195 369.993 C 306.085 369.815,306.536 369.430,307.198 369.137 C 307.859 368.844,308.400 368.449,308.400 368.260 C 308.400 368.070,308.650 368.010,308.955 368.127 C 309.358 368.282,309.448 368.103,309.285 367.470 C 309.079 366.667,309.119 366.646,309.807 367.200 C 310.234 367.543,310.426 367.587,310.254 367.302 C 310.060 366.978,310.349 366.630,311.077 366.310 C 311.695 366.038,312.310 365.662,312.445 365.474 C 312.579 365.286,312.849 365.145,313.045 365.161 C 313.839 365.227,314.778 364.722,314.692 364.276 C 314.641 364.014,314.807 363.839,315.059 363.886 C 315.328 363.937,315.435 363.654,315.316 363.201 C 315.154 362.581,315.287 362.463,315.994 362.599 C 316.670 362.729,316.817 362.620,316.628 362.128 C 316.430 361.612,316.493 361.579,316.949 361.957 C 317.403 362.334,317.504 362.288,317.458 361.724 C 317.426 361.336,317.670 361.011,318.000 361.000 C 318.330 360.989,318.575 360.672,318.545 360.295 C 318.515 359.917,318.650 359.707,318.845 359.828 C 319.040 359.949,319.425 359.904,319.700 359.730 C 319.975 359.555,320.372 359.409,320.582 359.406 C 320.792 359.403,321.089 358.950,321.242 358.400 C 321.395 357.850,321.538 357.557,321.560 357.749 C 321.582 357.941,321.905 357.851,322.277 357.549 C 322.737 357.176,322.857 357.160,322.653 357.500 C 322.488 357.775,322.543 358.000,322.776 358.000 C 323.009 358.000,323.200 357.640,323.200 357.200 C 323.200 356.124,77.433 355.940,76.484 357.015 M319.273 360.487 C 318.713 361.047,318.655 361.600,319.157 361.600 C 319.524 361.600,320.127 360.394,319.883 360.149 C 319.808 360.075,319.534 360.226,319.273 360.487 M83.913 362.304 C 83.670 362.598,83.363 362.694,83.231 362.519 C 83.099 362.344,82.827 362.064,82.628 361.899 C 82.428 361.733,82.735 361.637,83.310 361.684 C 84.133 361.752,84.262 361.885,83.913 362.304 " stroke="none" fill="#6acbbc" fill-rule="evenodd"></path><path id="path1" d="M180.600 0.261 C 178.840 0.342,177.040 0.576,176.600 0.780 C 176.160 0.984,173.865 1.269,171.500 1.414 C 169.135 1.559,167.200 1.840,167.200 2.038 C 167.200 2.237,166.300 2.400,165.200 2.400 C 164.100 2.400,163.200 2.561,163.200 2.758 C 163.200 2.955,161.759 3.244,159.998 3.400 C 158.237 3.556,156.696 3.845,156.574 4.042 C 156.452 4.239,155.733 4.400,154.976 4.400 C 154.219 4.400,153.600 4.566,153.600 4.768 C 153.600 4.971,152.430 5.262,151.000 5.415 C 149.570 5.568,148.400 5.852,148.400 6.047 C 148.400 6.241,147.770 6.400,147.000 6.400 C 146.230 6.400,145.600 6.567,145.600 6.771 C 145.600 6.975,144.610 7.266,143.400 7.417 C 142.190 7.568,141.200 7.851,141.200 8.046 C 141.200 8.241,140.750 8.400,140.200 8.400 C 139.650 8.400,139.200 8.563,139.200 8.762 C 139.200 8.962,138.300 9.249,137.200 9.400 C 136.100 9.551,135.200 9.838,135.200 10.038 C 135.200 10.237,134.750 10.400,134.200 10.400 C 133.650 10.400,133.200 10.560,133.200 10.755 C 133.200 10.950,132.394 11.230,131.409 11.378 C 130.424 11.525,129.514 11.816,129.386 12.023 C 129.258 12.230,128.803 12.400,128.376 12.400 C 127.949 12.400,127.600 12.557,127.600 12.749 C 127.600 12.941,126.880 13.213,126.000 13.354 C 125.120 13.494,124.400 13.787,124.400 14.005 C 124.400 14.222,124.128 14.400,123.795 14.400 C 123.462 14.400,122.877 14.573,122.495 14.785 C 121.194 15.506,117.225 17.179,116.211 17.433 C 115.655 17.573,115.200 17.847,115.200 18.043 C 115.200 18.240,114.840 18.400,114.400 18.400 C 113.960 18.400,113.600 18.566,113.600 18.768 C 113.600 18.971,113.060 19.255,112.400 19.400 C 111.740 19.545,111.200 19.829,111.200 20.032 C 111.200 20.234,110.840 20.400,110.400 20.400 C 109.960 20.400,109.600 20.566,109.600 20.768 C 109.600 20.971,109.060 21.255,108.400 21.400 C 107.740 21.545,107.200 21.829,107.200 22.032 C 107.200 22.234,106.840 22.400,106.400 22.400 C 105.960 22.400,105.600 22.566,105.600 22.768 C 105.600 22.971,105.060 23.255,104.400 23.400 C 103.740 23.545,103.200 23.808,103.200 23.984 C 103.200 24.160,102.165 24.821,100.900 25.451 C 99.635 26.082,98.362 26.823,98.071 27.099 C 97.781 27.374,97.286 27.600,96.971 27.600 C 96.657 27.600,96.400 27.780,96.400 28.000 C 96.400 28.220,96.130 28.400,95.800 28.400 C 95.470 28.400,95.200 28.577,95.200 28.792 C 95.200 29.008,94.750 29.298,94.200 29.436 C 93.650 29.574,93.200 29.847,93.200 30.043 C 93.200 30.240,92.930 30.400,92.600 30.400 C 92.270 30.400,92.000 30.562,92.000 30.761 C 92.000 30.959,91.458 31.311,90.795 31.542 C 90.132 31.773,89.483 32.241,89.352 32.581 C 89.221 32.921,88.768 33.200,88.345 33.200 C 87.921 33.200,87.471 33.470,87.345 33.800 C 87.218 34.130,86.942 34.400,86.731 34.400 C 86.357 34.400,83.933 36.096,82.871 37.100 C 82.581 37.375,82.221 37.600,82.071 37.601 C 81.922 37.601,81.170 38.141,80.400 38.800 C 79.630 39.459,78.891 39.999,78.758 39.999 C 78.626 40.000,78.068 40.405,77.520 40.900 C 76.472 41.846,75.180 42.867,73.343 44.200 C 72.736 44.640,71.676 45.541,70.987 46.202 C 70.297 46.863,69.147 47.853,68.430 48.402 C 67.204 49.341,63.113 53.172,58.315 57.873 C 55.344 60.785,49.770 66.738,48.482 68.374 C 47.887 69.130,46.905 70.229,46.300 70.817 C 45.695 71.405,45.200 72.060,45.200 72.271 C 45.200 72.483,44.795 73.042,44.300 73.515 C 42.437 75.294,41.600 76.238,41.600 76.561 C 41.600 76.744,41.105 77.484,40.500 78.204 C 38.612 80.451,37.939 81.370,37.498 82.300 C 37.264 82.795,36.920 83.200,36.736 83.200 C 36.551 83.200,36.400 83.388,36.400 83.617 C 36.400 83.847,35.950 84.520,35.400 85.113 C 34.850 85.707,34.400 86.399,34.400 86.653 C 34.400 86.907,34.130 87.218,33.800 87.345 C 33.470 87.471,33.200 87.921,33.200 88.345 C 33.200 88.768,32.927 89.219,32.594 89.347 C 32.261 89.475,31.811 89.989,31.595 90.490 C 31.142 91.539,30.313 92.908,29.954 93.200 C 29.819 93.310,29.581 93.805,29.427 94.300 C 29.272 94.795,28.978 95.200,28.773 95.200 C 28.568 95.200,28.400 95.470,28.400 95.800 C 28.400 96.130,28.220 96.400,28.000 96.400 C 27.780 96.400,27.600 96.657,27.600 96.971 C 27.600 97.286,27.374 97.781,27.099 98.071 C 26.823 98.362,26.082 99.635,25.451 100.900 C 24.821 102.165,24.160 103.200,23.984 103.200 C 23.808 103.200,23.545 103.740,23.400 104.400 C 23.255 105.060,22.971 105.600,22.768 105.600 C 22.566 105.600,22.400 105.960,22.400 106.400 C 22.400 106.840,22.234 107.200,22.032 107.200 C 21.829 107.200,21.545 107.740,21.400 108.400 C 21.255 109.060,20.971 109.600,20.768 109.600 C 20.566 109.600,20.400 109.960,20.400 110.400 C 20.400 110.840,20.220 111.200,20.000 111.200 C 19.780 111.200,19.600 111.547,19.600 111.971 C 19.600 112.396,19.330 113.013,19.000 113.343 C 18.670 113.673,18.400 114.226,18.400 114.571 C 18.400 114.917,18.257 115.200,18.083 115.200 C 17.908 115.200,17.429 116.190,17.018 117.400 C 16.607 118.610,16.139 119.600,15.980 119.600 C 15.820 119.600,15.571 120.230,15.426 121.000 C 15.282 121.770,14.992 122.400,14.782 122.400 C 14.572 122.400,14.400 122.850,14.400 123.400 C 14.400 123.950,14.228 124.400,14.018 124.400 C 13.808 124.400,13.510 125.075,13.355 125.900 C 13.200 126.725,12.744 127.987,12.341 128.705 C 11.938 129.423,11.492 130.732,11.351 131.614 C 11.210 132.496,10.939 133.314,10.747 133.432 C 10.556 133.551,10.400 133.997,10.400 134.424 C 10.400 134.851,10.237 135.200,10.038 135.200 C 9.838 135.200,9.551 136.100,9.400 137.200 C 9.249 138.300,8.962 139.200,8.762 139.200 C 8.563 139.200,8.400 139.650,8.400 140.200 C 8.400 140.750,8.241 141.200,8.046 141.200 C 7.851 141.200,7.568 142.190,7.417 143.400 C 7.266 144.610,6.975 145.600,6.771 145.600 C 6.567 145.600,6.400 146.230,6.400 147.000 C 6.400 147.770,6.241 148.400,6.047 148.400 C 5.852 148.400,5.568 149.568,5.415 150.996 C 5.262 152.423,4.971 153.694,4.769 153.819 C 4.566 153.945,4.400 154.566,4.400 155.200 C 4.400 155.834,4.232 156.457,4.027 156.583 C 3.822 156.710,3.528 158.251,3.375 160.007 C 3.222 161.763,2.940 163.200,2.748 163.200 C 2.557 163.200,2.400 164.100,2.400 165.200 C 2.400 166.300,2.220 167.200,2.000 167.200 C 1.780 167.200,1.633 167.335,1.674 167.500 C 1.913 168.471,1.029 176.248,0.652 176.485 C -0.010 176.903,0.012 221.900,0.676 223.239 C 0.937 223.768,1.269 226.135,1.414 228.500 C 1.559 230.865,1.840 232.800,2.038 232.800 C 2.237 232.800,2.400 233.711,2.400 234.824 C 2.400 236.071,2.553 236.752,2.800 236.600 C 3.042 236.450,3.207 237.033,3.217 238.076 C 3.227 239.024,3.418 240.610,3.642 241.600 C 3.866 242.590,4.151 243.940,4.275 244.600 C 4.399 245.260,4.641 245.980,4.812 246.200 C 4.983 246.420,5.251 247.633,5.407 248.895 C 5.563 250.158,5.851 251.092,6.046 250.972 C 6.240 250.851,6.400 251.573,6.400 252.576 C 6.400 253.579,6.580 254.400,6.800 254.400 C 7.020 254.400,7.200 254.861,7.200 255.424 C 7.200 255.987,7.342 256.359,7.516 256.252 C 7.690 256.144,7.769 256.718,7.691 257.528 C 7.583 258.643,7.650 258.855,7.968 258.400 C 8.315 257.904,8.389 257.957,8.394 258.700 C 8.403 260.011,8.434 260.159,8.797 260.600 C 8.977 260.820,9.252 261.855,9.408 262.900 C 9.564 263.945,9.850 264.800,10.045 264.800 C 10.240 264.800,10.400 265.149,10.400 265.576 C 10.400 266.003,10.559 266.451,10.754 266.571 C 10.948 266.692,11.249 267.647,11.421 268.695 C 11.593 269.743,11.807 270.285,11.896 269.900 C 11.986 269.515,12.090 269.156,12.129 269.101 C 12.439 268.668,387.600 268.667,387.600 269.100 C 387.600 269.375,387.426 269.600,387.213 269.600 C 386.999 269.600,386.940 269.900,387.081 270.266 C 387.221 270.632,387.170 270.829,386.968 270.704 C 386.766 270.579,386.575 270.896,386.544 271.409 C 386.505 272.066,386.657 272.276,387.061 272.121 C 387.377 272.000,387.536 271.803,387.416 271.683 C 387.296 271.563,387.514 271.104,387.899 270.664 C 388.285 270.223,388.375 269.994,388.100 270.155 C 387.825 270.316,387.600 270.257,387.600 270.024 C 387.600 269.791,387.791 269.600,388.024 269.600 C 388.257 269.600,388.345 269.435,388.221 269.234 C 388.097 269.033,388.221 268.786,388.498 268.686 C 388.901 268.540,388.901 268.336,388.497 267.652 C 388.051 266.898,388.086 266.800,388.797 266.800 C 389.380 266.800,389.600 266.535,389.600 265.833 C 389.600 265.302,389.768 264.807,389.973 264.733 C 390.178 264.660,390.420 263.842,390.511 262.915 C 390.602 261.988,390.892 260.971,391.155 260.654 C 391.529 260.204,391.520 260.032,391.117 259.870 C 390.699 259.703,390.700 259.657,391.124 259.632 C 391.412 259.614,391.536 259.420,391.400 259.200 C 391.264 258.980,391.433 258.800,391.776 258.800 C 392.119 258.800,392.400 258.620,392.400 258.400 C 392.400 258.180,392.175 257.997,391.900 257.994 C 391.523 257.989,391.531 257.905,391.930 257.652 C 392.222 257.467,392.560 256.573,392.682 255.666 C 392.804 254.759,393.060 254.113,393.252 254.232 C 393.443 254.350,393.600 253.807,393.600 253.024 C 393.600 252.241,393.783 251.600,394.006 251.600 C 394.230 251.600,394.398 251.105,394.380 250.500 C 394.325 248.699,394.877 246.000,395.252 246.232 C 395.443 246.350,395.600 245.747,395.600 244.890 C 395.600 244.034,395.729 243.205,395.886 243.047 C 396.186 242.747,396.279 242.257,396.650 239.000 C 396.775 237.900,397.040 236.829,397.239 236.620 C 397.437 236.411,397.600 235.466,397.600 234.520 C 397.600 233.574,397.764 232.800,397.965 232.800 C 398.166 232.800,398.459 230.636,398.617 227.992 C 398.775 225.347,399.034 223.103,399.193 223.004 C 399.955 222.533,400.114 177.773,399.356 177.285 C 399.099 177.121,398.790 174.969,398.624 172.200 C 398.466 169.560,398.171 167.340,397.968 167.267 C 397.766 167.193,397.600 166.248,397.600 165.167 C 397.600 164.085,397.446 163.200,397.257 163.200 C 397.069 163.200,396.796 161.923,396.651 160.362 C 396.506 158.801,396.210 157.193,395.994 156.788 C 395.777 156.384,395.600 155.501,395.600 154.826 C 395.600 154.152,395.434 153.600,395.232 153.600 C 395.029 153.600,394.738 152.430,394.585 151.000 C 394.432 149.570,394.148 148.400,393.953 148.400 C 393.759 148.400,393.600 147.770,393.600 147.000 C 393.600 146.230,393.433 145.600,393.229 145.600 C 393.025 145.600,392.734 144.610,392.583 143.400 C 392.432 142.190,392.149 141.200,391.954 141.200 C 391.759 141.200,391.600 140.750,391.600 140.200 C 391.600 139.650,391.437 139.200,391.238 139.200 C 391.038 139.200,390.751 138.300,390.600 137.200 C 390.449 136.100,390.162 135.200,389.962 135.200 C 389.763 135.200,389.600 134.750,389.600 134.200 C 389.600 133.650,389.440 133.200,389.245 133.200 C 389.050 133.200,388.770 132.394,388.622 131.409 C 388.475 130.424,388.184 129.514,387.977 129.386 C 387.770 129.258,387.600 128.803,387.600 128.376 C 387.600 127.949,387.443 127.600,387.251 127.600 C 387.059 127.600,386.787 126.880,386.646 126.000 C 386.506 125.120,386.213 124.400,385.995 124.400 C 385.778 124.400,385.600 123.950,385.600 123.400 C 385.600 122.850,385.428 122.400,385.218 122.400 C 385.008 122.400,384.718 121.770,384.574 121.000 C 384.429 120.230,384.180 119.600,384.020 119.600 C 383.861 119.600,383.393 118.610,382.982 117.400 C 382.571 116.190,382.092 115.200,381.917 115.200 C 381.743 115.200,381.600 114.840,381.600 114.400 C 381.600 113.960,381.434 113.600,381.232 113.600 C 381.029 113.600,380.745 113.060,380.600 112.400 C 380.455 111.740,380.171 111.200,379.968 111.200 C 379.766 111.200,379.600 110.917,379.600 110.571 C 379.600 110.226,379.330 109.673,379.000 109.343 C 378.670 109.013,378.400 108.396,378.400 107.971 C 378.400 107.547,378.220 107.200,378.000 107.200 C 377.780 107.200,377.600 106.840,377.600 106.400 C 377.600 105.960,377.440 105.600,377.243 105.600 C 377.047 105.600,376.770 105.135,376.627 104.566 C 376.484 103.997,376.003 103.142,375.556 102.666 C 375.110 102.190,374.645 101.305,374.523 100.700 C 374.400 100.095,374.143 99.600,373.950 99.600 C 373.757 99.600,373.600 99.330,373.600 99.000 C 373.600 98.670,373.423 98.400,373.208 98.400 C 372.992 98.400,372.702 97.950,372.564 97.400 C 372.426 96.850,372.153 96.400,371.957 96.400 C 371.760 96.400,371.600 96.130,371.600 95.800 C 371.600 95.470,371.423 95.200,371.208 95.200 C 370.992 95.200,370.702 94.750,370.564 94.200 C 370.426 93.650,370.198 93.196,370.057 93.192 C 369.915 93.188,369.268 92.288,368.617 91.192 C 367.967 90.096,367.292 89.200,367.117 89.200 C 366.943 89.200,366.800 88.834,366.800 88.387 C 366.800 87.941,366.530 87.471,366.200 87.345 C 365.870 87.218,365.600 86.942,365.600 86.731 C 365.600 86.357,363.904 83.933,362.900 82.871 C 362.625 82.581,362.400 82.174,362.400 81.968 C 362.400 81.761,361.860 81.028,361.200 80.337 C 360.540 79.646,360.000 78.954,360.000 78.799 C 360.000 78.644,359.595 78.074,359.100 77.533 C 358.605 76.992,357.840 76.040,357.400 75.417 C 356.960 74.795,356.195 73.918,355.700 73.470 C 355.205 73.022,354.800 72.483,354.800 72.271 C 354.800 72.060,354.305 71.405,353.700 70.817 C 353.095 70.229,352.109 69.130,351.509 68.374 C 350.014 66.492,344.304 60.397,341.467 57.655 C 335.184 51.582,332.756 49.316,331.551 48.400 C 330.827 47.850,329.758 46.905,329.174 46.300 C 328.591 45.695,327.940 45.200,327.729 45.200 C 327.517 45.200,326.978 44.795,326.530 44.300 C 326.082 43.805,325.206 43.040,324.584 42.600 C 323.962 42.160,322.906 41.305,322.238 40.700 C 321.569 40.095,320.890 39.600,320.729 39.600 C 320.568 39.600,320.008 39.172,319.484 38.648 C 318.961 38.124,318.142 37.572,317.666 37.421 C 317.190 37.270,316.800 36.978,316.800 36.773 C 316.800 36.568,316.612 36.400,316.383 36.400 C 316.153 36.400,315.480 35.950,314.887 35.400 C 314.293 34.850,313.601 34.400,313.347 34.400 C 313.093 34.400,312.782 34.130,312.655 33.800 C 312.529 33.470,312.074 33.200,311.646 33.200 C 311.217 33.200,310.807 33.065,310.733 32.900 C 310.518 32.414,307.692 30.400,307.227 30.400 C 306.992 30.400,306.800 30.240,306.800 30.043 C 306.800 29.847,306.350 29.574,305.800 29.436 C 305.250 29.298,304.800 29.008,304.800 28.792 C 304.800 28.577,304.530 28.400,304.200 28.400 C 303.870 28.400,303.600 28.240,303.600 28.043 C 303.600 27.847,303.150 27.574,302.600 27.436 C 302.050 27.298,301.600 27.008,301.600 26.792 C 301.600 26.577,301.330 26.400,301.000 26.400 C 300.670 26.400,300.400 26.243,300.400 26.050 C 300.400 25.857,299.905 25.600,299.300 25.477 C 298.695 25.355,297.810 24.890,297.334 24.444 C 296.858 23.997,296.003 23.516,295.434 23.373 C 294.865 23.230,294.400 22.953,294.400 22.757 C 294.400 22.560,294.040 22.400,293.600 22.400 C 293.160 22.400,292.800 22.234,292.800 22.032 C 292.800 21.829,292.260 21.545,291.600 21.400 C 290.940 21.255,290.400 20.971,290.400 20.768 C 290.400 20.566,290.040 20.400,289.600 20.400 C 289.160 20.400,288.800 20.234,288.800 20.032 C 288.800 19.829,288.260 19.545,287.600 19.400 C 286.940 19.255,286.400 18.971,286.400 18.768 C 286.400 18.566,286.040 18.400,285.600 18.400 C 285.160 18.400,284.800 18.234,284.800 18.032 C 284.800 17.829,284.262 17.545,283.605 17.401 C 282.947 17.257,282.306 16.972,282.181 16.769 C 282.055 16.566,281.603 16.400,281.176 16.400 C 280.749 16.400,280.400 16.240,280.400 16.045 C 280.400 15.849,279.770 15.571,279.000 15.426 C 278.230 15.282,277.600 14.992,277.600 14.782 C 277.600 14.572,277.150 14.400,276.600 14.400 C 276.050 14.400,275.600 14.222,275.600 14.005 C 275.600 13.787,274.880 13.494,274.000 13.354 C 273.120 13.213,272.400 12.941,272.400 12.749 C 272.400 12.557,272.051 12.400,271.624 12.400 C 271.197 12.400,270.742 12.230,270.614 12.023 C 270.486 11.816,269.576 11.525,268.591 11.378 C 267.606 11.230,266.800 10.950,266.800 10.755 C 266.800 10.560,266.350 10.400,265.800 10.400 C 265.250 10.400,264.800 10.237,264.800 10.038 C 264.800 9.838,263.900 9.551,262.800 9.400 C 261.700 9.249,260.800 8.962,260.800 8.762 C 260.800 8.563,260.361 8.400,259.824 8.400 C 259.287 8.400,258.746 8.237,258.623 8.037 C 258.500 7.838,257.499 7.551,256.400 7.400 C 255.300 7.249,254.400 6.962,254.400 6.762 C 254.400 6.563,253.770 6.400,253.000 6.400 C 252.230 6.400,251.600 6.241,251.600 6.047 C 251.600 5.852,250.430 5.568,249.000 5.415 C 247.570 5.262,246.400 4.971,246.400 4.768 C 246.400 4.566,245.781 4.400,245.024 4.400 C 244.267 4.400,243.543 4.232,243.417 4.027 C 243.290 3.822,241.749 3.528,239.993 3.375 C 238.237 3.222,236.800 2.940,236.800 2.748 C 236.800 2.557,235.900 2.400,234.800 2.400 C 233.700 2.400,232.800 2.237,232.800 2.038 C 232.800 1.840,230.865 1.562,228.500 1.421 C 226.135 1.280,223.840 0.958,223.400 0.706 C 222.619 0.257,188.373 -0.099,180.600 0.261 M96.994 140.083 C 97.987 140.349,98.800 140.709,98.800 140.883 C 98.800 141.057,98.979 141.200,99.198 141.200 C 99.590 141.200,104.515 144.731,111.200 149.804 C 113.070 151.223,116.310 153.659,118.400 155.217 C 120.490 156.775,124.090 159.475,126.400 161.218 C 128.710 162.961,132.242 165.605,134.249 167.093 C 138.944 170.576,168.073 192.467,168.600 192.910 C 168.820 193.094,170.350 194.245,172.000 195.468 C 178.326 200.155,181.370 202.527,181.533 202.898 C 181.607 203.064,181.877 203.203,182.133 203.206 C 182.390 203.210,183.209 203.750,183.954 204.406 C 184.699 205.063,185.444 205.600,185.611 205.600 C 186.464 205.600,190.395 210.168,190.633 211.436 C 190.775 212.191,191.050 212.907,191.245 213.028 C 191.445 213.151,191.600 223.547,191.600 236.824 L 191.600 260.400 182.000 260.400 L 172.400 260.400 172.400 240.088 C 172.400 219.867,172.396 219.774,171.555 219.188 C 169.830 217.988,167.774 216.404,166.914 215.614 C 166.427 215.166,165.887 214.797,165.714 214.794 C 165.541 214.790,164.836 214.295,164.146 213.694 C 161.309 211.219,160.780 210.800,160.493 210.800 C 160.327 210.800,159.707 210.350,159.113 209.800 C 158.520 209.250,157.924 208.800,157.789 208.800 C 157.477 208.800,153.445 205.501,153.267 205.100 C 153.193 204.935,152.921 204.800,152.663 204.800 C 152.404 204.800,151.744 204.395,151.196 203.900 C 150.648 203.405,149.120 202.199,147.800 201.219 C 146.480 200.239,145.162 199.204,144.871 198.919 C 144.581 198.634,144.210 198.400,144.047 198.400 C 143.884 198.400,143.401 198.085,142.974 197.700 C 142.547 197.315,141.118 196.190,139.798 195.200 C 138.479 194.210,137.162 193.175,136.871 192.900 C 136.581 192.625,136.210 192.400,136.047 192.400 C 135.884 192.400,135.401 192.085,134.974 191.700 C 134.547 191.315,133.118 190.190,131.798 189.200 C 130.479 188.210,129.162 187.175,128.871 186.900 C 128.581 186.625,128.210 186.400,128.047 186.400 C 127.884 186.400,127.402 186.078,126.975 185.683 C 126.549 185.289,125.120 184.165,123.800 183.186 C 122.480 182.206,121.310 181.313,121.200 181.200 C 121.090 181.087,119.920 180.195,118.600 179.217 C 117.280 178.238,115.962 177.204,115.671 176.919 C 115.381 176.634,115.010 176.400,114.847 176.400 C 114.684 176.400,114.202 176.085,113.775 175.700 C 113.349 175.315,111.920 174.197,110.600 173.216 C 109.280 172.236,108.020 171.293,107.800 171.123 C 107.580 170.952,106.860 170.392,106.200 169.880 C 105.540 169.367,104.313 168.433,103.473 167.805 L 101.946 166.664 102.235 213.532 L 102.525 260.400 92.862 260.400 L 83.200 260.400 83.200 203.984 L 83.200 147.568 84.046 145.910 C 84.956 144.125,87.836 141.200,88.682 141.200 C 88.967 141.200,89.200 141.052,89.200 140.871 C 89.200 139.867,94.271 139.355,96.994 140.083 M309.354 140.075 C 312.604 141.012,316.800 144.822,316.800 146.836 C 316.800 147.230,316.980 147.664,317.200 147.800 C 317.464 147.963,317.600 167.204,317.600 204.224 L 317.600 260.400 308.000 260.400 L 298.400 260.400 298.394 213.500 C 298.391 187.705,298.256 166.787,298.094 167.015 C 297.932 167.243,296.109 168.661,294.043 170.167 C 291.977 171.672,289.907 173.224,289.443 173.616 C 288.979 174.007,287.250 175.324,285.600 176.541 C 283.950 177.759,282.420 178.908,282.200 179.095 C 281.980 179.282,280.720 180.225,279.400 181.190 C 278.080 182.155,276.910 183.050,276.800 183.180 C 276.690 183.310,274.890 184.669,272.800 186.200 C 270.710 187.731,268.910 189.078,268.800 189.194 C 268.690 189.310,267.520 190.206,266.200 191.186 C 264.880 192.165,263.451 193.289,263.025 193.683 C 262.598 194.078,262.116 194.400,261.953 194.400 C 261.790 194.400,261.419 194.625,261.129 194.900 C 260.838 195.175,259.520 196.203,258.200 197.183 C 256.880 198.164,255.451 199.289,255.025 199.683 C 254.598 200.078,254.116 200.400,253.953 200.400 C 253.790 200.400,253.419 200.625,253.129 200.900 C 252.838 201.175,251.521 202.210,250.202 203.200 C 248.882 204.190,247.453 205.315,247.026 205.700 C 246.599 206.085,246.116 206.400,245.953 206.400 C 245.790 206.400,245.419 206.625,245.129 206.900 C 244.838 207.175,243.521 208.210,242.202 209.200 C 240.882 210.190,239.453 211.315,239.026 211.700 C 238.599 212.085,238.131 212.400,237.986 212.400 C 237.841 212.400,237.306 212.761,236.797 213.202 C 236.289 213.644,235.086 214.589,234.125 215.302 C 233.164 216.016,231.797 217.092,231.089 217.694 C 230.380 218.295,229.594 218.790,229.343 218.794 C 228.462 218.806,228.400 220.217,228.400 240.233 L 228.400 260.400 218.800 260.400 L 209.200 260.400 209.200 236.587 C 209.200 216.995,209.300 212.535,209.764 211.424 C 210.837 208.858,211.666 208.125,223.615 199.200 C 225.529 197.770,228.173 195.790,229.490 194.800 C 230.807 193.810,232.386 192.640,233.000 192.200 C 233.613 191.760,234.674 190.941,235.358 190.379 C 236.041 189.818,237.590 188.650,238.800 187.785 C 241.780 185.654,241.622 185.772,243.200 184.489 C 243.970 183.862,246.130 182.231,248.000 180.863 C 249.870 179.495,252.930 177.217,254.800 175.800 C 256.670 174.383,259.730 172.100,261.600 170.725 C 263.470 169.350,265.227 168.005,265.505 167.736 C 265.782 167.468,267.582 166.118,269.505 164.736 C 271.427 163.355,273.227 162.005,273.505 161.736 C 273.782 161.468,275.582 160.120,277.505 158.743 C 279.427 157.365,281.090 156.128,281.200 155.993 C 281.310 155.859,284.640 153.338,288.600 150.392 C 292.560 147.446,295.890 144.936,296.000 144.815 C 299.409 141.068,305.410 138.938,309.354 140.075 M12.400 270.743 C 12.400 271.408,12.580 272.064,12.800 272.200 C 13.020 272.336,13.200 272.235,13.200 271.975 C 13.200 271.636,13.398 271.654,13.900 272.039 C 14.285 272.334,14.195 272.120,13.700 271.562 C 13.205 271.005,12.803 270.380,12.806 270.174 C 12.809 269.968,13.003 270.070,13.237 270.400 C 13.582 270.888,13.632 270.893,13.505 270.425 C 13.197 269.285,12.400 269.514,12.400 270.743 M13.853 273.500 C 13.920 273.775,13.817 274.000,13.625 274.000 C 13.432 274.000,13.370 274.364,13.486 274.808 C 13.647 275.423,13.824 275.512,14.222 275.182 C 14.753 274.741,14.873 273.108,14.351 273.430 C 14.196 273.526,13.992 273.469,13.900 273.302 C 13.807 273.136,13.786 273.225,13.853 273.500 M386.067 273.400 C 386.147 273.882,385.999 274.160,385.696 274.099 C 385.290 274.017,385.290 274.155,385.694 274.803 C 386.184 275.586,386.207 275.580,386.544 274.569 C 386.776 273.872,386.732 273.377,386.412 273.065 C 386.044 272.708,385.964 272.786,386.067 273.400 M14.648 275.523 C 14.538 275.700,14.486 276.107,14.533 276.426 C 14.633 277.103,16.000 279.149,16.000 278.620 C 16.000 278.424,15.702 277.934,15.338 277.531 C 14.872 277.017,14.827 276.800,15.187 276.800 C 15.569 276.800,15.586 276.665,15.252 276.263 C 15.007 275.968,14.925 275.608,15.070 275.463 C 15.215 275.318,15.224 275.200,15.090 275.200 C 14.957 275.200,14.757 275.345,14.648 275.523 M384.704 276.072 C 384.455 276.723,385.010 277.923,385.387 277.546 C 385.514 277.420,385.464 276.901,385.276 276.394 C 385.016 275.691,384.880 275.614,384.704 276.072 M382.099 283.191 C 381.490 284.166,381.475 284.400,382.024 284.400 C 382.257 284.400,382.345 284.235,382.221 284.034 C 382.097 283.833,382.203 283.599,382.458 283.514 C 382.712 283.429,382.847 283.142,382.759 282.876 C 382.657 282.571,382.413 282.687,382.099 283.191 M380.645 286.188 C 380.280 286.744,380.098 287.200,380.240 287.200 C 380.382 287.200,380.287 287.454,380.030 287.764 C 379.709 288.150,379.694 288.411,379.981 288.588 C 380.340 288.810,380.592 287.904,380.300 287.442 C 380.245 287.355,380.544 286.904,380.964 286.440 C 381.385 285.975,381.634 285.501,381.518 285.385 C 381.403 285.270,381.010 285.631,380.645 286.188 M367.430 310.052 C 367.007 310.463,366.849 310.800,367.081 310.800 C 367.543 310.800,368.609 309.665,368.357 309.442 C 368.271 309.366,367.854 309.640,367.430 310.052 M354.469 327.639 C 353.728 328.824,354.057 328.913,354.919 327.761 C 355.314 327.232,355.492 326.800,355.315 326.800 C 355.138 326.800,354.757 327.178,354.469 327.639 M342.587 340.859 C 341.274 342.211,340.568 343.066,341.017 342.759 C 341.853 342.187,345.434 338.400,345.138 338.400 C 345.049 338.400,343.901 339.506,342.587 340.859 M57.802 342.002 C 58.202 342.444,58.611 342.722,58.712 342.621 C 58.928 342.405,57.788 341.200,57.367 341.200 C 57.207 341.200,57.403 341.561,57.802 342.002 " stroke="none" fill="#5bb9a9" fill-rule="evenodd"></path><path id="path2" d="M93.000 140.226 C 92.780 140.298,91.861 140.547,90.958 140.778 C 88.749 141.345,86.021 143.501,84.800 145.644 L 83.800 147.400 83.695 203.700 L 83.589 260.000 92.395 260.000 L 101.200 260.000 101.200 213.224 C 101.200 183.087,101.340 166.361,101.592 166.205 C 101.899 166.015,105.823 168.578,106.800 169.606 C 106.910 169.722,108.710 171.069,110.800 172.600 C 112.890 174.131,114.690 175.478,114.800 175.595 C 114.910 175.711,123.278 182.015,133.395 189.603 C 143.513 197.191,152.063 203.620,152.395 203.889 C 152.728 204.158,157.500 207.763,163.000 211.901 L 173.000 219.425 173.200 239.613 L 173.400 259.800 182.200 259.800 L 191.000 259.800 191.103 237.823 C 191.233 210.251,191.361 210.931,185.170 206.262 C 183.756 205.197,182.239 204.027,181.797 203.662 C 181.355 203.298,172.805 196.850,162.797 189.334 C 152.789 181.818,134.297 167.920,121.705 158.451 C 105.989 146.633,98.337 141.116,97.305 140.858 C 95.164 140.324,93.465 140.074,93.000 140.226 M303.634 140.668 C 302.223 140.968,300.466 142.159,292.114 148.476 C 277.686 159.391,243.110 185.416,240.403 187.400 C 234.074 192.037,212.439 208.472,212.078 208.916 C 211.862 209.182,211.261 210.120,210.743 211.000 L 209.800 212.600 209.688 236.300 L 209.576 260.000 218.388 260.000 L 227.200 260.000 227.200 240.076 C 227.200 224.744,227.315 220.006,227.700 219.515 C 227.975 219.165,234.860 213.892,243.000 207.799 C 251.140 201.706,258.161 196.424,258.602 196.061 C 259.044 195.697,261.113 194.140,263.200 192.600 C 265.287 191.060,267.266 189.581,267.598 189.313 C 270.639 186.856,298.610 166.000,298.864 166.000 C 299.047 166.000,299.242 187.105,299.298 212.900 L 299.400 259.800 308.200 259.800 L 317.000 259.800 317.116 205.200 C 317.245 144.840,317.345 147.414,314.741 144.255 C 312.284 141.275,307.718 139.800,303.634 140.668 " stroke="none" fill="#fbfbfb" fill-rule="evenodd"></path><path id="path3" d="M102.185 224.600 C 102.185 235.380,102.237 239.733,102.300 234.272 C 102.363 228.812,102.363 219.992,102.300 214.672 C 102.237 209.353,102.185 213.820,102.185 224.600 M199.800 268.801 C 96.620 268.912,12.155 269.047,12.100 269.101 C 12.045 269.155,12.003 269.515,12.006 269.900 C 12.011 270.454,12.085 270.485,12.361 270.049 C 12.746 269.441,13.604 269.771,13.594 270.524 C 13.590 270.810,13.433 270.761,13.200 270.400 C 12.987 270.070,12.809 269.968,12.806 270.174 C 12.803 270.380,13.205 271.005,13.700 271.562 C 14.195 272.120,14.285 272.334,13.900 272.039 C 13.268 271.554,13.200 271.624,13.200 272.751 C 13.200 274.060,13.535 274.305,14.290 273.550 C 14.624 273.216,14.706 273.397,14.609 274.250 C 14.533 274.913,14.757 275.725,15.138 276.168 C 15.763 276.892,15.755 276.919,15.009 276.646 C 14.281 276.378,14.288 276.430,15.109 277.304 C 15.599 277.825,15.997 278.420,15.994 278.626 C 15.991 278.832,15.813 278.730,15.600 278.400 C 15.329 277.980,15.210 277.954,15.206 278.313 C 15.203 278.594,15.440 278.917,15.733 279.030 C 16.027 279.142,16.276 279.452,16.287 279.717 C 16.299 279.983,16.601 280.875,16.960 281.700 C 17.318 282.525,17.473 283.206,17.305 283.214 C 17.137 283.222,17.450 283.486,18.000 283.800 C 18.550 284.114,18.781 284.378,18.513 284.386 C 17.910 284.403,18.321 285.668,19.078 286.125 C 19.374 286.303,19.505 286.629,19.369 286.850 C 19.233 287.070,19.383 287.554,19.703 287.925 C 20.023 288.296,21.064 290.175,22.016 292.100 C 22.968 294.025,23.894 295.600,24.073 295.600 C 24.253 295.600,24.400 295.791,24.400 296.024 C 24.400 296.257,24.175 296.318,23.900 296.159 C 23.625 296.001,23.842 296.356,24.381 296.948 C 24.921 297.540,25.427 298.505,25.506 299.092 C 25.584 299.679,25.998 300.403,26.424 300.702 C 26.851 301.001,27.200 301.505,27.200 301.823 C 27.200 302.140,27.399 302.400,27.643 302.400 C 27.886 302.400,27.978 302.679,27.847 303.021 C 27.716 303.362,27.742 303.561,27.905 303.463 C 28.251 303.253,28.950 304.002,29.114 304.758 C 29.177 305.048,29.492 305.549,29.814 305.871 C 30.136 306.194,30.400 306.722,30.400 307.045 C 30.400 307.369,30.577 307.851,30.794 308.117 C 32.676 310.425,33.200 311.179,33.200 311.581 C 33.200 311.838,33.380 311.936,33.600 311.800 C 33.820 311.664,34.000 311.734,34.000 311.956 C 34.000 312.178,34.540 313.160,35.200 314.138 C 35.860 315.116,36.400 316.115,36.400 316.358 C 36.400 316.601,36.658 316.800,36.974 316.800 C 37.290 316.800,37.776 317.430,38.054 318.200 C 38.333 318.970,38.692 319.600,38.853 319.600 C 39.014 319.600,39.261 319.963,39.402 320.406 C 39.543 320.849,39.825 321.108,40.029 320.982 C 40.233 320.856,40.400 320.956,40.400 321.205 C 40.400 321.454,40.625 321.908,40.900 322.215 C 42.096 323.548,42.400 323.993,42.400 324.407 C 42.400 324.649,42.560 324.749,42.755 324.628 C 42.950 324.507,43.355 324.711,43.655 325.081 C 44.123 325.659,44.116 325.703,43.607 325.396 C 42.714 324.857,45.503 328.201,48.200 330.904 C 48.860 331.565,49.130 331.962,48.800 331.787 C 48.470 331.612,48.783 332.038,49.496 332.734 C 50.209 333.430,50.985 334.000,51.220 334.000 C 51.455 334.000,51.536 334.180,51.400 334.400 C 51.264 334.620,51.354 334.800,51.600 334.800 C 51.846 334.800,51.936 334.980,51.800 335.200 C 51.664 335.420,51.923 335.600,52.376 335.600 C 52.847 335.600,53.200 335.861,53.200 336.209 C 53.200 336.544,55.442 339.019,58.182 341.709 C 66.267 349.646,67.823 351.010,68.644 350.878 C 69.288 350.775,69.311 350.824,68.800 351.213 C 68.301 351.592,68.343 351.638,69.049 351.485 C 69.679 351.349,69.859 351.469,69.746 351.951 C 69.653 352.349,70.151 352.986,71.036 353.600 C 71.829 354.150,72.762 354.906,73.110 355.280 C 73.458 355.653,73.895 355.865,74.081 355.750 C 74.267 355.635,74.370 355.689,74.310 355.870 C 74.249 356.052,74.364 356.229,74.564 356.264 C 74.764 356.299,75.084 356.607,75.275 356.948 C 75.480 357.314,75.888 357.464,76.276 357.315 C 76.682 357.160,76.832 357.225,76.670 357.487 C 76.396 357.930,77.270 358.872,77.858 358.767 C 78.675 358.620,78.953 358.843,78.400 359.200 C 77.891 359.529,77.910 359.589,78.524 359.594 C 78.922 359.597,79.136 359.780,79.000 360.000 C 78.864 360.220,78.943 360.423,79.176 360.450 C 79.409 360.478,79.825 360.531,80.100 360.568 C 80.375 360.606,80.540 360.898,80.467 361.218 C 80.393 361.538,80.470 361.663,80.637 361.496 C 80.804 361.329,81.388 361.599,81.935 362.096 C 82.482 362.593,82.799 362.775,82.641 362.500 C 82.482 362.225,82.528 362.000,82.743 362.000 C 82.958 362.000,83.200 362.200,83.281 362.444 C 83.377 362.731,83.602 362.680,83.919 362.298 C 84.334 361.797,84.210 361.712,83.104 361.738 C 82.028 361.762,81.820 361.630,81.917 360.984 C 82.015 360.321,81.964 360.292,81.582 360.800 C 81.215 361.288,81.169 361.225,81.338 360.460 C 81.511 359.676,81.414 359.555,80.748 359.729 C 80.233 359.864,79.861 359.701,79.698 359.269 C 79.351 358.352,78.415 357.452,78.118 357.749 C 77.829 358.037,76.800 357.258,76.800 356.751 C 76.800 356.550,129.593 356.400,200.000 356.400 C 322.933 356.400,323.200 356.402,323.200 357.200 C 323.200 357.640,323.009 358.000,322.776 358.000 C 322.543 358.000,322.488 357.775,322.653 357.500 C 322.893 357.101,322.829 357.100,322.340 357.497 C 322.003 357.770,321.630 357.897,321.513 357.780 C 321.396 357.662,321.212 358.024,321.105 358.583 C 320.946 359.419,321.061 359.594,321.755 359.568 C 322.220 359.551,322.375 359.446,322.100 359.335 C 321.825 359.224,321.600 358.974,321.600 358.779 C 321.600 358.584,321.847 358.520,322.148 358.636 C 322.450 358.751,322.977 358.566,323.320 358.223 C 323.663 357.880,324.181 357.594,324.471 357.587 C 324.828 357.579,324.772 357.402,324.300 357.043 C 323.915 356.751,323.600 356.375,323.600 356.207 C 323.600 356.039,323.899 356.149,324.265 356.451 C 324.784 356.879,324.967 356.890,325.098 356.500 C 325.191 356.225,325.514 356.000,325.817 356.000 C 326.361 356.000,327.314 355.226,330.370 352.300 C 331.232 351.475,332.176 350.797,332.469 350.794 C 332.865 350.789,332.847 350.689,332.400 350.400 C 331.915 350.086,331.972 350.011,332.700 350.006 C 333.231 350.003,333.600 349.754,333.600 349.400 C 333.600 349.070,333.870 348.800,334.200 348.800 C 334.530 348.800,334.800 348.609,334.800 348.376 C 334.800 348.143,334.967 348.056,335.171 348.182 C 335.375 348.308,335.657 348.049,335.798 347.606 C 335.939 347.163,336.214 346.800,336.409 346.800 C 336.881 346.800,338.800 344.865,338.800 344.389 C 338.800 344.184,339.244 343.904,339.787 343.768 C 340.329 343.631,340.734 343.313,340.687 343.060 C 340.639 342.807,340.838 342.649,341.130 342.710 C 341.421 342.770,341.558 342.656,341.434 342.455 C 341.142 341.983,342.180 341.114,342.570 341.503 C 342.733 341.667,342.807 341.530,342.733 341.200 C 342.660 340.868,342.836 340.649,343.130 340.710 C 343.421 340.770,343.556 340.652,343.429 340.446 C 343.302 340.241,343.728 339.627,344.377 339.081 C 345.025 338.535,345.446 337.979,345.311 337.844 C 345.177 337.710,345.355 337.600,345.706 337.600 C 346.058 337.600,346.457 337.249,346.594 336.820 C 346.730 336.392,347.205 335.925,347.651 335.784 C 348.096 335.643,348.365 335.431,348.248 335.315 C 348.131 335.198,348.740 334.404,349.602 333.551 C 350.464 332.698,351.061 332.000,350.928 332.000 C 350.796 332.000,351.307 331.415,352.064 330.700 C 352.821 329.985,353.565 329.074,353.717 328.675 C 353.877 328.255,354.190 328.070,354.459 328.236 C 354.739 328.410,354.816 328.349,354.653 328.085 C 354.503 327.844,354.926 327.090,355.591 326.409 C 356.256 325.729,356.802 325.044,356.803 324.886 C 356.805 324.729,357.435 323.937,358.203 323.127 C 358.972 322.316,359.600 321.518,359.600 321.352 C 359.600 321.187,360.320 320.198,361.200 319.154 C 362.080 318.110,362.800 317.156,362.800 317.033 C 362.800 316.803,363.737 315.583,364.800 314.428 C 365.130 314.069,365.818 312.927,366.328 311.888 C 366.838 310.850,367.402 310.000,367.580 310.000 C 367.757 310.000,368.126 309.462,368.398 308.805 C 368.670 308.148,369.052 307.709,369.246 307.829 C 369.441 307.949,369.600 307.677,369.600 307.224 C 369.600 306.771,369.762 306.400,369.961 306.400 C 370.159 306.400,370.503 305.905,370.725 305.300 C 371.337 303.629,373.805 299.938,374.108 300.241 C 374.255 300.388,374.305 300.143,374.219 299.696 C 374.133 299.250,374.386 298.536,374.782 298.111 C 375.178 297.686,375.626 296.947,375.778 296.469 C 375.930 295.991,376.232 295.600,376.451 295.600 C 376.669 295.600,376.737 295.422,376.602 295.203 C 376.467 294.985,376.915 293.995,377.598 293.003 C 378.280 292.012,378.712 291.200,378.557 291.200 C 378.403 291.200,378.570 290.876,378.928 290.479 C 379.287 290.083,379.639 289.380,379.709 288.918 C 379.780 288.456,380.099 287.756,380.419 287.362 C 380.923 286.742,380.923 286.693,380.421 286.995 C 380.103 287.187,380.250 286.772,380.749 286.072 C 381.247 285.373,381.867 284.797,382.127 284.794 C 382.439 284.790,382.415 284.671,382.058 284.444 C 381.609 284.160,381.626 283.932,382.159 283.118 C 382.513 282.578,382.682 282.016,382.535 281.868 C 382.387 281.721,382.579 281.600,382.960 281.600 C 383.457 281.600,383.586 281.387,383.415 280.847 C 383.270 280.391,383.397 280.010,383.737 279.880 C 384.064 279.754,384.250 279.235,384.184 278.630 C 384.112 277.976,384.227 277.693,384.498 277.861 C 384.770 278.029,384.848 277.827,384.712 277.307 C 384.594 276.857,384.653 276.244,384.843 275.944 C 385.105 275.530,385.199 275.592,385.234 276.200 C 385.272 276.858,385.332 276.823,385.576 276.000 C 385.741 275.444,385.693 274.768,385.469 274.477 C 385.176 274.098,385.221 273.989,385.632 274.077 C 385.993 274.155,386.154 273.930,386.073 273.460 C 386.004 273.053,386.094 272.809,386.273 272.918 C 386.453 273.027,386.864 272.831,387.187 272.482 C 387.705 271.922,387.699 271.876,387.131 272.094 C 386.647 272.280,386.502 272.111,386.544 271.409 C 386.575 270.896,386.766 270.579,386.968 270.704 C 387.170 270.829,387.225 270.643,387.090 270.291 C 386.955 269.940,387.042 269.586,387.282 269.506 C 389.740 268.687,371.253 268.617,199.800 268.801 M319.783 359.627 C 319.638 359.862,319.290 359.967,319.009 359.859 C 318.714 359.746,318.521 359.941,318.550 360.322 C 318.577 360.684,318.330 360.989,318.000 361.000 C 317.670 361.011,317.426 361.336,317.458 361.724 C 317.504 362.288,317.403 362.334,316.949 361.957 C 316.491 361.578,316.430 361.614,316.634 362.143 C 316.996 363.089,317.321 362.969,318.540 361.441 C 319.369 360.401,319.833 360.135,320.512 360.310 C 321.302 360.514,321.340 360.465,320.851 359.869 C 320.205 359.082,320.131 359.065,319.783 359.627 M314.916 363.467 C 314.673 363.980,314.638 364.400,314.838 364.400 C 315.037 364.400,315.200 364.220,315.200 364.000 C 315.200 363.780,315.470 363.600,315.800 363.600 C 316.130 363.600,316.400 363.360,316.400 363.067 C 316.400 362.190,315.389 362.463,314.916 363.467 M83.600 363.200 C 83.087 363.531,83.102 363.589,83.700 363.594 C 84.085 363.597,84.400 363.780,84.400 364.000 C 84.400 364.220,84.715 364.395,85.100 364.388 C 85.761 364.376,85.761 364.353,85.092 363.963 C 84.702 363.736,84.488 363.382,84.615 363.175 C 84.915 362.690,84.368 362.704,83.600 363.200 M86.286 364.920 C 86.099 365.409,86.233 365.600,86.764 365.600 C 87.170 365.600,87.717 365.859,87.980 366.176 C 88.243 366.493,88.715 366.654,89.029 366.533 C 89.903 366.198,89.708 365.647,88.800 365.884 C 88.353 366.001,88.000 365.896,88.000 365.647 C 88.000 365.401,87.745 365.200,87.433 365.200 C 87.122 365.200,86.795 364.984,86.707 364.720 C 86.607 364.420,86.449 364.495,86.286 364.920 M312.400 365.446 C 312.400 365.654,311.844 366.035,311.163 366.291 C 310.312 366.613,310.024 366.920,310.240 367.279 C 310.477 367.672,310.388 367.666,309.877 367.251 C 309.296 366.780,309.200 366.790,309.200 367.327 C 309.200 368.398,309.842 368.415,310.751 367.370 C 311.231 366.818,311.779 366.464,311.970 366.581 C 312.352 366.818,312.944 365.611,312.609 365.276 C 312.494 365.161,312.400 365.237,312.400 365.446 M90.400 367.757 C 90.400 368.399,91.282 368.816,92.533 368.764 C 93.159 368.738,93.035 368.623,92.086 368.349 C 91.363 368.140,90.879 367.797,91.009 367.585 C 91.140 367.373,91.057 367.200,90.824 367.200 C 90.591 367.200,90.400 367.451,90.400 367.757 M306.600 369.467 C 305.897 370.030,305.889 370.077,306.533 369.854 C 306.936 369.714,307.431 369.600,307.633 369.600 C 307.835 369.600,308.000 369.420,308.000 369.200 C 308.000 368.633,307.527 368.724,306.600 369.467 M94.486 370.048 C 94.664 370.880,95.546 371.672,96.136 371.529 C 96.481 371.446,96.262 371.065,95.521 370.458 C 94.866 369.921,94.421 369.745,94.486 370.048 M96.781 372.064 C 96.307 372.399,96.329 372.434,96.900 372.250 C 97.285 372.126,97.600 372.199,97.600 372.413 C 97.600 372.626,97.881 372.800,98.224 372.800 C 98.593 372.800,98.731 372.988,98.562 373.262 C 98.384 373.549,98.452 373.615,98.741 373.436 C 99.001 373.276,99.311 373.425,99.446 373.775 C 99.734 374.525,100.640 374.596,101.041 373.900 C 101.199 373.625,101.187 373.527,101.015 373.683 C 100.842 373.838,100.138 373.550,99.451 373.042 C 97.613 371.684,97.418 371.613,96.781 372.064 M298.882 373.850 C 298.171 374.612,298.296 374.884,299.147 374.428 C 299.558 374.208,299.978 374.112,300.081 374.214 C 300.183 374.316,300.267 374.160,300.267 373.867 C 300.267 373.188,299.510 373.178,298.882 373.850 M102.349 374.900 C 102.956 375.673,103.819 375.816,104.197 375.205 C 104.338 374.977,104.176 374.911,103.816 375.049 C 103.471 375.181,102.877 375.044,102.495 374.745 C 101.866 374.252,101.852 374.267,102.349 374.900 M297.400 374.800 C 297.264 375.020,296.713 375.200,296.176 375.200 C 295.639 375.200,295.200 375.399,295.200 375.643 C 295.200 375.886,294.932 375.983,294.605 375.857 C 294.277 375.732,294.029 375.757,294.052 375.914 C 294.180 376.770,293.945 377.216,293.500 376.965 C 293.140 376.761,293.147 376.839,293.525 377.241 C 293.972 377.717,294.108 377.697,294.445 377.100 C 294.662 376.715,295.191 376.400,295.620 376.400 C 296.049 376.400,296.400 376.220,296.400 376.000 C 296.400 375.780,296.651 375.600,296.957 375.600 C 297.264 375.600,297.618 375.330,297.745 375.000 C 298.004 374.323,297.777 374.191,297.400 374.800 M291.700 377.798 C 291.034 378.555,291.060 379.014,291.737 378.452 C 292.032 378.207,292.392 378.125,292.537 378.270 C 292.682 378.415,292.800 378.233,292.800 377.867 C 292.800 377.059,292.374 377.033,291.700 377.798 M111.200 380.000 C 111.200 380.220,111.365 380.400,111.567 380.400 C 111.769 380.400,112.264 380.514,112.667 380.654 C 113.311 380.877,113.303 380.830,112.600 380.267 C 111.673 379.524,111.200 379.433,111.200 380.000 M268.900 388.048 C 268.185 388.254,267.600 388.511,267.600 388.619 C 267.600 388.909,269.738 388.353,270.180 387.948 C 270.616 387.549,270.630 387.548,268.900 388.048 M257.200 391.913 C 256.650 391.998,256.036 392.226,255.835 392.419 C 255.523 392.720,258.353 392.489,258.727 392.183 C 259.032 391.934,258.115 391.772,257.200 391.913 " stroke="none" fill="#64ccb4" fill-rule="evenodd"></path><path id="path4" d="M89.800 140.747 C 87.117 141.970,83.352 145.885,84.120 146.654 C 84.236 146.770,84.643 146.209,85.024 145.407 C 85.883 143.596,88.779 141.338,90.958 140.778 C 93.312 140.174,93.524 140.066,92.400 140.040 C 91.850 140.028,90.680 140.346,89.800 140.747 M96.064 140.554 C 98.600 141.099,99.082 141.406,108.140 148.233 C 111.693 150.911,114.675 153.034,114.767 152.951 C 114.858 152.868,114.858 152.739,114.767 152.665 C 105.743 145.371,97.409 139.983,95.232 140.034 C 93.990 140.063,94.101 140.132,96.064 140.554 M303.511 140.329 C 303.132 140.480,304.392 140.602,306.311 140.601 C 310.313 140.600,312.475 141.541,314.812 144.300 C 315.511 145.125,315.899 145.440,315.674 145.000 C 313.850 141.428,307.190 138.870,303.511 140.329 M301.600 141.093 C 300.837 141.385,290.452 149.192,290.127 149.718 C 289.886 150.108,291.650 148.849,297.831 144.220 C 299.608 142.889,301.408 141.586,301.831 141.324 C 302.656 140.812,302.567 140.723,301.600 141.093 M316.148 146.552 C 317.156 149.397,317.219 153.245,317.112 205.300 C 317.051 235.385,317.135 260.000,317.300 260.000 C 317.465 260.000,317.600 235.330,317.600 205.177 C 317.600 150.592,317.530 147.429,316.287 146.200 C 316.015 145.931,315.970 146.047,316.148 146.552 M83.449 147.815 C 83.312 148.173,83.243 173.606,83.297 204.333 L 83.393 260.200 83.597 203.800 C 83.814 143.607,83.822 146.844,83.449 147.815 M279.000 157.863 C 273.280 162.168,268.251 165.936,267.824 166.236 C 267.397 166.536,267.127 166.856,267.224 166.947 C 267.395 167.108,288.016 151.741,289.186 150.581 C 290.532 149.246,288.884 150.424,279.000 157.863 M115.600 153.704 C 115.930 154.055,122.511 159.080,130.224 164.871 C 137.937 170.662,152.517 181.607,162.624 189.193 C 172.731 196.778,181.090 203.094,181.200 203.227 C 181.310 203.360,182.701 204.410,184.290 205.559 C 185.880 206.709,187.815 208.391,188.590 209.297 C 189.366 210.203,189.999 210.777,189.998 210.572 C 189.992 209.433,185.040 205.481,163.600 189.507 C 162.170 188.441,160.730 187.347,160.400 187.075 C 159.462 186.303,129.903 164.085,126.241 161.400 C 124.441 160.080,122.165 158.357,121.184 157.572 C 118.693 155.579,114.876 152.934,115.600 153.704 M101.475 166.258 C 101.324 166.410,101.200 187.599,101.200 213.347 C 101.200 245.746,101.328 260.032,101.616 259.744 C 101.900 259.460,101.995 244.699,101.916 213.064 C 101.847 185.486,101.947 166.800,102.164 166.800 C 102.364 166.800,103.489 167.526,104.664 168.413 C 105.839 169.300,106.793 169.885,106.785 169.713 C 106.776 169.541,105.746 168.680,104.495 167.800 C 101.777 165.889,101.822 165.912,101.475 166.258 M283.366 177.433 C 275.025 183.721,267.931 189.017,267.603 189.203 C 267.275 189.388,267.095 189.624,267.203 189.727 C 267.386 189.901,293.296 170.626,296.400 168.007 C 297.170 167.357,298.025 166.820,298.300 166.813 C 298.697 166.803,298.800 176.380,298.800 213.400 C 298.800 239.030,298.935 260.000,299.100 260.000 C 299.265 260.000,299.354 238.850,299.297 213.000 C 299.240 187.150,299.045 166.000,298.863 166.000 C 298.680 166.000,291.707 171.145,283.366 177.433 M263.600 169.444 C 261.950 170.660,260.237 171.958,259.794 172.328 C 259.351 172.697,250.711 179.200,240.594 186.777 C 230.477 194.355,222.110 200.660,222.000 200.788 C 221.890 200.916,220.124 202.237,218.076 203.723 C 212.578 207.711,209.324 211.057,210.145 211.878 C 210.275 212.008,210.505 211.774,210.656 211.357 C 210.807 210.941,211.258 210.127,211.658 209.548 C 212.257 208.683,229.457 195.428,240.399 187.400 C 247.068 182.507,266.800 167.545,266.800 167.381 C 266.800 167.090,266.743 167.127,263.600 169.444 M107.800 170.686 C 108.978 171.890,114.803 176.084,114.785 175.716 C 114.776 175.542,113.831 174.741,112.685 173.935 C 111.538 173.129,109.790 171.885,108.800 171.169 C 107.810 170.454,107.360 170.236,107.800 170.686 M115.215 176.251 C 115.224 176.443,116.169 177.259,117.315 178.065 C 118.462 178.871,120.165 180.101,121.100 180.800 C 122.035 181.498,122.800 181.972,122.800 181.853 C 122.800 181.733,121.315 180.519,119.500 179.153 C 117.685 177.787,115.975 176.497,115.700 176.286 C 115.425 176.075,115.207 176.059,115.215 176.251 M123.230 182.277 C 123.246 182.455,129.681 187.398,137.530 193.261 C 160.158 210.167,172.176 219.274,172.494 219.755 C 172.656 220.000,172.791 229.155,172.794 240.100 C 172.797 251.045,172.935 260.000,173.100 260.000 C 173.265 260.000,173.310 250.871,173.200 239.713 L 173.000 219.425 163.000 211.901 C 157.500 207.763,152.728 204.158,152.395 203.889 C 151.689 203.317,125.011 183.250,123.931 182.477 C 123.529 182.190,123.213 182.100,123.230 182.277 M263.400 192.441 C 261.640 193.772,259.931 195.013,259.603 195.200 C 259.275 195.387,259.098 195.632,259.211 195.744 C 259.416 195.949,266.800 190.544,266.800 190.189 C 266.800 189.877,266.721 189.929,263.400 192.441 M254.900 198.844 C 252.865 200.360,251.200 201.701,251.200 201.824 C 251.200 202.141,251.829 201.719,254.957 199.304 C 256.473 198.134,258.001 197.015,258.353 196.818 C 258.705 196.621,258.905 196.376,258.797 196.274 C 258.689 196.172,256.935 197.328,254.900 198.844 M246.900 204.844 C 244.865 206.360,243.200 207.701,243.200 207.824 C 243.200 208.141,243.829 207.719,246.957 205.304 C 248.473 204.134,250.001 203.015,250.353 202.818 C 250.705 202.621,250.905 202.376,250.797 202.274 C 250.689 202.172,248.935 203.328,246.900 204.844 M235.233 213.630 C 231.181 216.677,227.719 219.402,227.539 219.685 C 227.054 220.450,227.110 260.000,227.596 260.000 C 227.852 260.000,228.030 252.773,228.096 239.703 L 228.200 219.405 235.000 214.274 C 238.740 211.452,242.069 208.989,242.397 208.801 C 242.725 208.614,242.905 208.377,242.797 208.275 C 242.689 208.174,239.285 210.584,235.233 213.630 M190.167 211.799 C 191.086 214.382,191.210 217.852,191.109 238.100 C 191.049 250.145,191.135 260.000,191.300 260.000 C 191.465 260.000,191.600 250.000,191.600 237.777 C 191.600 215.997,191.427 212.528,190.287 211.400 C 190.015 211.131,189.975 211.262,190.167 211.799 M209.449 213.015 C 209.312 213.373,209.242 224.136,209.292 236.933 L 209.384 260.200 209.592 236.400 C 209.815 210.934,209.821 212.046,209.449 213.015 " stroke="none" fill="#9fd6cc" fill-rule="evenodd"></path></g></svg>