<svg width="22" height="22" viewBox="0 0 22 22" fill="none" xmlns="http://www.w3.org/2000/svg">
<path d="M18.375 14.103C19.0239 12.5613 19.1732 10.855 18.8021 9.22402C18.4309 7.59303 17.558 6.11938 16.3059 5.01024C15.0539 3.9011 13.4857 3.21225 11.8218 3.04055C10.158 2.86884 8.48218 3.22292 7.03 4.05299L6.038 2.31599C7.55563 1.4486 9.27419 0.994353 11.0222 0.998564C12.7702 1.00278 14.4866 1.4653 16 2.33999C20.49 4.93199 22.21 10.482 20.117 15.11L21.459 15.884L17.294 18.098L17.129 13.384L18.375 14.103ZM3.625 7.89699C2.97614 9.43868 2.82678 11.145 3.19792 12.776C3.56905 14.4069 4.44201 15.8806 5.69407 16.9897C6.94613 18.0989 8.51432 18.7877 10.1782 18.9594C11.842 19.1311 13.5178 18.7771 14.97 17.947L15.962 19.684C14.4444 20.5514 12.7258 21.0056 10.9778 21.0014C9.22978 20.9972 7.51344 20.5347 6 19.66C1.51 17.068 -0.21 11.518 1.883 6.88999L0.54 6.11699L4.705 3.90299L4.87 8.61699L3.624 7.89799L3.625 7.89699ZM12.415 13.828L9.584 11L6.756 13.828L5.342 12.414L9.585 8.17199L12.414 11L15.243 8.17199L16.657 9.58599L12.414 13.828H12.415Z" fill="#fff"/>
</svg>
