<svg width="22" height="22" viewBox="0 0 22 22" fill="none" xmlns="http://www.w3.org/2000/svg">
<path d="M19.036 13.5346C18.2997 13.1308 17.4986 12.9438 16.7096 12.95L16.7163 12.9462C15.6338 12.9586 14.7459 12.1167 14.7331 11.0661C14.7206 10.0294 15.5641 9.17757 16.6254 9.14216V9.14168L16.6234 9.14071C17.4263 9.13683 18.2386 8.93262 18.9786 8.50557C21.1914 7.22842 21.9189 4.45175 20.6034 2.30362C19.2876 0.155396 16.4274 -0.550752 14.2145 0.726406C12.0017 2.00347 11.2743 4.78023 12.5899 6.92836C13.1378 7.82348 12.8349 8.98035 11.9129 9.51255C11.004 10.0371 9.83367 9.75838 9.27537 8.89333L9.27488 8.89352V8.89595C8.87258 8.22162 8.28643 7.63907 7.53712 7.22812C5.29586 5.99879 2.45206 6.76596 1.18576 8.94203C-0.0805285 11.1176 0.710116 13.8782 2.95147 15.1074C5.19293 16.3367 8.03634 15.5695 9.30273 13.3935C9.31039 13.3804 9.31718 13.3668 9.32465 13.3536V13.3568L9.32514 13.357C9.86307 12.4787 11.0282 12.1744 11.949 12.6794C12.883 13.1917 13.2122 14.3418 12.6846 15.2483C11.4182 17.4243 12.2089 20.1847 14.4502 21.4138C16.6915 22.6433 19.5352 21.8759 20.8015 19.6999C22.0676 17.5242 21.2773 14.7639 19.036 13.5346Z" fill="white"/>
</svg>
