<svg id="svg" version="1.1" xmlns="http://www.w3.org/2000/svg" xmlns:xlink="http://www.w3.org/1999/xlink" width="400" height="400" viewBox="0, 0, 400,400"><g id="svgg"><path id="path0" d="M194.583 44.612 C 154.904 46.195,118.380 62.136,90.410 90.081 C 29.358 151.078,29.292 248.750,90.263 309.736 C 151.143 370.632,248.826 370.640,309.757 309.754 C 362.078 257.473,370.459 176.502,329.924 114.917 C 299.969 69.404,248.130 42.476,194.583 44.612 M229.874 90.875 L 229.917 108.583 256.520 108.626 L 283.123 108.668 283.238 112.292 C 283.301 114.286,283.460 118.467,283.592 121.583 C 284.148 134.806,283.848 142.177,282.472 149.083 C 281.313 154.902,279.817 157.341,272.403 165.505 C 268.327 169.993,268.109 170.247,259.080 181.083 C 254.422 186.675,249.812 192.188,248.838 193.333 C 246.640 195.918,241.117 202.442,239.682 204.147 C 236.788 207.589,229.205 216.379,224.586 221.645 C 221.743 224.888,219.004 228.015,218.500 228.594 C 216.900 230.433,214.505 233.194,213.020 234.912 C 206.629 242.307,203.177 246.140,198.823 250.681 L 195.692 253.945 225.957 254.056 C 242.603 254.117,262.060 254.167,269.195 254.167 L 282.168 254.167 282.126 275.875 L 282.083 297.583 256.542 297.626 L 231.001 297.668 230.959 315.959 L 230.917 334.250 208.667 334.250 L 186.417 334.250 186.374 316.542 L 186.332 298.834 159.708 298.792 L 133.083 298.750 132.972 295.667 C 132.025 269.330,132.138 265.095,134.005 256.966 C 135.149 251.981,136.744 249.565,144.593 240.929 C 146.432 238.905,148.532 236.534,149.260 235.658 C 149.988 234.783,151.708 232.725,153.083 231.085 C 154.458 229.445,156.146 227.420,156.833 226.585 C 157.981 225.191,166.372 215.188,169.917 210.990 C 170.742 210.013,171.976 208.546,172.659 207.731 C 173.342 206.917,174.515 205.537,175.266 204.667 C 176.017 203.796,178.943 200.383,181.768 197.083 C 186.390 191.684,192.735 184.397,198.000 178.439 C 199.054 177.247,200.479 175.620,201.167 174.825 C 202.999 172.707,204.459 171.098,210.768 164.252 C 213.894 160.859,217.430 156.996,218.626 155.667 L 220.800 153.250 179.149 153.208 L 137.499 153.166 137.541 131.458 L 137.583 109.750 162.042 109.708 L 186.500 109.666 186.500 91.416 L 186.500 73.167 208.166 73.167 L 229.832 73.167 229.874 90.875 " stroke="none" fill="#e6aa3e" fill-rule="evenodd"></path><path id="path1" d="M187.167 0.180 C 179.546 0.673,170.766 1.827,162.583 3.410 C 161.025 3.712,159.225 4.046,158.583 4.154 C 156.952 4.427,150.663 5.986,147.083 7.006 C 145.433 7.476,143.408 8.037,142.583 8.252 C 141.758 8.468,139.433 9.219,137.417 9.922 C 135.400 10.624,132.700 11.561,131.417 12.004 C 130.133 12.447,127.883 13.310,126.417 13.921 C 124.950 14.533,123.112 15.293,122.333 15.611 C 119.739 16.671,117.438 17.704,115.333 18.755 C 114.187 19.327,112.769 19.996,112.183 20.243 C 111.597 20.490,109.672 21.474,107.905 22.429 C 106.139 23.385,104.655 24.167,104.609 24.167 C 104.477 24.167,101.009 26.143,100.083 26.745 C 99.625 27.044,98.688 27.590,98.000 27.959 C 97.313 28.328,96.361 28.882,95.887 29.190 C 92.582 31.333,91.867 31.789,91.319 32.102 C 90.980 32.295,90.076 32.892,89.310 33.429 C 88.544 33.965,87.129 34.933,86.167 35.581 C 83.487 37.382,77.778 41.626,76.366 42.866 C 75.844 43.325,75.042 43.953,74.583 44.262 C 74.125 44.571,73.037 45.469,72.167 46.257 C 71.296 47.046,70.321 47.866,70.000 48.080 C 69.679 48.294,68.967 48.897,68.417 49.420 C 67.867 49.943,66.667 51.018,65.750 51.808 C 63.591 53.670,53.670 63.591,51.808 65.750 C 51.018 66.667,49.943 67.867,49.420 68.417 C 48.897 68.967,48.294 69.679,48.080 70.000 C 47.866 70.321,47.046 71.296,46.257 72.167 C 45.469 73.037,44.571 74.125,44.262 74.583 C 43.953 75.042,43.325 75.844,42.866 76.366 C 40.998 78.494,33.561 88.816,32.167 91.216 C 31.797 91.852,31.238 92.730,29.190 95.887 C 28.882 96.361,28.328 97.313,27.959 98.000 C 27.590 98.688,27.044 99.625,26.745 100.083 C 26.134 101.023,24.167 104.478,24.167 104.613 C 24.167 104.661,23.387 106.137,22.434 107.892 C 21.482 109.647,20.498 111.571,20.248 112.166 C 19.999 112.762,19.327 114.187,18.755 115.333 C 17.705 117.436,16.705 119.664,15.574 122.417 C 15.235 123.242,14.475 125.079,13.885 126.500 C 13.295 127.921,12.486 130.021,12.088 131.167 C 9.166 139.570,8.592 141.288,8.159 142.914 C 7.890 143.924,7.228 146.325,6.688 148.250 C 5.609 152.091,4.256 157.681,4.024 159.250 C 3.942 159.800,3.526 162.087,3.099 164.333 C 1.661 171.889,0.569 180.671,0.157 188.000 C -0.128 193.080,0.035 211.974,0.398 215.917 C 1.096 223.487,1.904 229.387,3.115 235.750 C 3.533 237.950,3.942 240.200,4.024 240.750 C 4.256 242.319,5.609 247.909,6.688 251.750 C 7.228 253.675,7.890 256.076,8.159 257.086 C 8.592 258.712,9.166 260.430,12.088 268.833 C 12.486 269.979,13.295 272.079,13.885 273.500 C 14.475 274.921,15.235 276.758,15.574 277.583 C 16.705 280.336,17.705 282.564,18.755 284.667 C 19.327 285.813,19.999 287.238,20.248 287.834 C 20.498 288.429,21.482 290.353,22.434 292.108 C 23.387 293.863,24.167 295.339,24.167 295.387 C 24.167 295.522,26.134 298.977,26.745 299.917 C 27.044 300.375,27.590 301.313,27.959 302.000 C 28.329 302.688,28.957 303.752,29.357 304.366 C 30.965 306.838,31.767 308.099,32.102 308.683 C 32.295 309.021,32.892 309.924,33.429 310.690 C 33.965 311.456,34.933 312.871,35.581 313.833 C 37.382 316.513,41.626 322.222,42.866 323.634 C 43.325 324.156,43.953 324.958,44.262 325.417 C 44.571 325.875,45.469 326.962,46.257 327.833 C 47.046 328.704,47.866 329.679,48.080 330.000 C 48.294 330.321,48.897 331.033,49.420 331.583 C 49.943 332.133,51.018 333.333,51.808 334.250 C 53.670 336.409,63.591 346.330,65.750 348.192 C 66.667 348.982,67.867 350.057,68.417 350.580 C 68.967 351.103,69.679 351.706,70.000 351.920 C 70.321 352.134,71.296 352.954,72.167 353.743 C 73.037 354.531,74.125 355.429,74.583 355.738 C 75.042 356.047,75.844 356.675,76.366 357.134 C 77.778 358.374,83.487 362.618,86.167 364.419 C 87.129 365.067,88.544 366.035,89.310 366.571 C 90.076 367.108,90.979 367.705,91.317 367.898 C 91.901 368.233,93.162 369.035,95.634 370.643 C 96.248 371.043,97.313 371.671,98.000 372.041 C 98.688 372.410,99.625 372.956,100.083 373.255 C 100.968 373.831,104.475 375.833,104.598 375.833 C 104.639 375.833,106.114 376.603,107.878 377.545 C 109.641 378.486,111.571 379.472,112.167 379.735 C 112.763 379.999,114.188 380.680,115.333 381.250 C 117.446 382.300,119.765 383.339,122.333 384.389 C 123.112 384.707,124.950 385.467,126.417 386.079 C 127.883 386.690,130.133 387.553,131.417 387.996 C 132.700 388.439,135.400 389.376,137.417 390.078 C 139.433 390.781,141.758 391.533,142.583 391.750 C 143.408 391.966,145.958 392.665,148.250 393.302 C 152.473 394.476,157.631 395.735,159.000 395.926 C 159.412 395.984,161.063 396.285,162.667 396.595 C 170.237 398.058,176.011 398.865,184.333 399.621 C 188.489 399.999,210.643 400.059,214.667 399.703 C 223.703 398.904,229.098 398.165,237.500 396.576 C 239.196 396.256,241.033 395.914,241.583 395.818 C 243.276 395.521,249.077 394.080,252.583 393.084 C 254.417 392.564,256.592 391.962,257.417 391.747 C 258.746 391.400,260.411 390.841,268.833 387.912 C 269.979 387.514,272.079 386.705,273.500 386.115 C 274.921 385.525,276.758 384.765,277.583 384.426 C 280.319 383.302,282.560 382.297,284.583 381.286 C 285.683 380.737,287.168 380.036,287.882 379.730 C 288.597 379.424,290.556 378.422,292.236 377.503 C 293.916 376.585,295.332 375.833,295.383 375.833 C 295.527 375.833,298.987 373.860,299.948 373.230 C 300.423 372.918,301.361 372.372,302.031 372.016 C 302.702 371.661,303.752 371.043,304.366 370.643 C 306.748 369.093,308.100 368.234,308.787 367.833 C 311.211 366.420,321.513 358.996,323.634 357.134 C 324.156 356.675,324.958 356.047,325.417 355.738 C 325.875 355.429,326.962 354.531,327.833 353.743 C 328.704 352.954,329.679 352.137,330.000 351.926 C 330.321 351.716,331.033 351.112,331.583 350.586 C 332.133 350.059,333.333 348.982,334.250 348.191 C 336.408 346.331,346.329 336.410,348.192 334.250 C 348.982 333.333,350.057 332.133,350.580 331.583 C 351.103 331.033,351.706 330.321,351.920 330.000 C 352.134 329.679,352.954 328.704,353.743 327.833 C 354.531 326.962,355.429 325.875,355.738 325.417 C 356.047 324.958,356.675 324.156,357.134 323.634 C 358.374 322.222,362.618 316.513,364.419 313.833 C 365.067 312.871,366.035 311.456,366.571 310.690 C 367.108 309.924,367.705 309.021,367.898 308.683 C 368.233 308.099,369.035 306.838,370.643 304.366 C 371.043 303.752,371.671 302.688,372.041 302.000 C 372.410 301.313,372.956 300.375,373.255 299.917 C 373.857 298.991,375.833 295.523,375.833 295.391 C 375.833 295.345,376.615 293.861,377.571 292.095 C 378.526 290.328,379.510 288.403,379.757 287.817 C 380.004 287.231,380.673 285.813,381.245 284.667 C 382.296 282.562,383.329 280.261,384.389 277.667 C 384.707 276.887,385.467 275.050,386.079 273.583 C 386.690 272.117,387.554 269.867,387.998 268.583 C 388.443 267.300,389.380 264.600,390.081 262.583 C 390.782 260.567,391.532 258.242,391.747 257.417 C 391.962 256.592,392.523 254.567,392.992 252.917 C 393.947 249.559,395.555 243.113,395.819 241.583 C 395.913 241.033,396.253 239.196,396.574 237.500 C 398.178 229.020,398.969 223.234,399.697 214.667 C 400.005 211.048,400.005 188.952,399.697 185.333 C 398.969 176.766,398.178 170.980,396.574 162.500 C 396.253 160.804,395.913 158.967,395.819 158.417 C 395.555 156.887,393.947 150.441,392.992 147.083 C 392.523 145.433,391.962 143.408,391.747 142.583 C 391.531 141.758,390.744 139.321,389.996 137.167 C 389.248 135.012,388.311 132.313,387.913 131.167 C 387.516 130.021,386.689 127.883,386.078 126.417 C 385.466 124.950,384.645 122.962,384.253 122.000 C 383.219 119.456,382.334 117.496,381.204 115.241 C 380.655 114.146,380.002 112.763,379.752 112.167 C 379.502 111.571,378.518 109.647,377.566 107.892 C 376.613 106.137,375.833 104.661,375.833 104.613 C 375.833 104.478,373.866 101.023,373.255 100.083 C 372.956 99.625,372.410 98.688,372.041 98.000 C 371.672 97.313,371.118 96.361,370.810 95.887 C 368.667 92.582,368.211 91.867,367.898 91.319 C 367.705 90.980,367.108 90.076,366.571 89.310 C 366.035 88.544,365.067 87.129,364.419 86.167 C 362.618 83.487,358.374 77.778,357.134 76.366 C 356.675 75.844,356.047 75.042,355.738 74.583 C 355.429 74.125,354.531 73.037,353.743 72.167 C 352.954 71.296,352.137 70.321,351.926 70.000 C 351.716 69.679,351.112 68.967,350.586 68.417 C 350.059 67.867,348.982 66.667,348.191 65.750 C 346.330 63.591,336.409 53.670,334.250 51.809 C 333.333 51.018,332.133 49.941,331.583 49.414 C 331.033 48.888,330.321 48.284,330.000 48.074 C 329.679 47.863,328.704 47.046,327.833 46.257 C 326.962 45.469,325.875 44.571,325.417 44.262 C 324.958 43.953,324.156 43.325,323.634 42.866 C 322.321 41.713,315.899 36.935,314.083 35.760 C 313.533 35.404,312.524 34.700,311.840 34.196 C 311.157 33.692,309.980 32.898,309.226 32.432 C 308.471 31.965,306.780 30.897,305.469 30.059 C 304.157 29.221,302.558 28.254,301.917 27.911 C 301.275 27.568,300.375 27.045,299.917 26.749 C 298.732 25.983,297.058 25.039,294.750 23.835 C 293.650 23.261,292.015 22.382,291.116 21.881 C 290.217 21.380,288.754 20.648,287.866 20.254 C 286.977 19.860,284.938 18.902,283.333 18.127 C 281.729 17.351,279.967 16.543,279.417 16.331 C 278.867 16.119,277.592 15.590,276.583 15.156 C 273.475 13.819,270.606 12.683,268.635 12.010 C 267.598 11.656,264.885 10.720,262.605 9.930 C 260.326 9.140,257.738 8.310,256.855 8.085 C 255.972 7.861,253.675 7.233,251.750 6.691 C 247.927 5.614,242.331 4.257,240.750 4.024 C 240.200 3.942,237.950 3.533,235.750 3.115 C 229.396 1.905,223.533 1.102,215.917 0.397 C 212.475 0.078,191.218 -0.083,187.167 0.180 M206.529 44.581 C 226.099 45.068,247.815 50.464,266.750 59.544 C 270.598 61.389,271.433 61.821,275.667 64.160 C 277.945 65.419,284.466 69.402,286.000 70.473 C 286.596 70.888,287.908 71.797,288.917 72.493 C 307.338 85.195,324.552 104.136,335.503 123.750 C 337.948 128.129,338.509 129.204,340.300 132.939 C 365.416 185.326,359.333 246.644,324.403 293.179 C 307.100 316.229,284.037 333.852,256.906 344.752 C 225.902 357.208,187.556 359.029,156.917 349.502 C 144.240 345.560,133.603 341.146,125.500 336.463 C 124.629 335.960,123.579 335.376,123.167 335.167 C 114.267 330.644,99.122 318.980,89.480 309.222 C 80.170 299.801,69.135 285.299,64.833 276.833 C 64.624 276.421,64.040 275.371,63.537 274.500 C 53.523 257.171,46.634 234.037,44.801 211.583 C 44.507 207.977,44.504 192.066,44.798 188.417 C 48.231 145.715,68.169 107.434,101.291 79.950 C 109.362 73.253,117.274 67.999,128.499 61.886 C 148.957 50.744,177.542 43.893,201.250 44.452 C 202.258 44.476,204.634 44.534,206.529 44.581 M186.667 91.500 L 186.667 109.833 162.250 109.833 L 137.833 109.833 137.833 131.417 L 137.833 153.000 179.306 153.000 C 202.115 153.000,220.826 153.048,220.884 153.106 C 221.037 153.259,218.628 155.952,209.917 165.373 C 205.471 170.181,203.580 172.285,199.250 177.241 C 198.425 178.185,196.700 180.145,195.417 181.596 C 187.219 190.865,176.883 202.925,165.074 217.000 C 162.420 220.162,159.312 223.866,158.166 225.231 C 157.021 226.595,155.671 228.216,155.167 228.834 C 152.018 232.687,147.276 238.231,144.815 240.935 C 135.880 250.753,134.955 252.354,133.509 260.500 C 132.461 266.404,132.267 273.699,132.819 286.500 C 133.010 290.946,133.167 295.464,133.167 296.541 L 133.167 298.499 159.792 298.541 L 186.417 298.583 186.459 316.292 L 186.502 334.000 208.667 334.000 L 230.832 334.000 230.874 315.708 L 230.917 297.417 256.458 297.374 L 282.000 297.332 282.000 275.833 L 282.000 254.333 238.667 254.333 C 214.833 254.333,195.333 254.287,195.333 254.230 C 195.333 254.173,196.594 252.804,198.135 251.188 C 203.307 245.765,207.922 240.638,213.750 233.841 C 216.169 231.020,217.693 229.269,222.921 223.311 C 225.764 220.069,228.805 216.592,229.678 215.583 C 233.838 210.779,236.511 207.671,237.500 206.489 C 238.096 205.777,239.596 204.009,240.833 202.561 C 242.071 201.112,243.908 198.947,244.917 197.748 C 245.925 196.549,248.887 193.028,251.500 189.924 C 254.112 186.820,256.962 183.420,257.833 182.369 C 265.691 172.889,268.723 169.323,271.825 165.917 C 280.527 156.362,281.705 154.192,282.998 145.339 C 283.773 140.028,283.990 130.562,283.523 122.417 C 283.418 120.583,283.290 116.908,283.239 114.250 C 283.187 111.592,283.111 109.248,283.070 109.042 L 282.994 108.667 256.330 108.667 L 229.667 108.667 229.667 90.917 L 229.667 73.167 208.167 73.167 L 186.667 73.167 186.667 91.500 " stroke="none" fill="#040404" fill-rule="evenodd"></path><path id="path2" d="M307.667 88.052 C 307.667 88.081,307.910 88.325,308.208 88.594 L 308.750 89.083 308.260 88.542 C 307.804 88.037,307.667 87.923,307.667 88.052 M91.242 89.042 L 90.583 89.750 91.292 89.091 C 91.950 88.478,92.077 88.333,91.950 88.333 C 91.923 88.333,91.605 88.652,91.242 89.042 M88.991 91.292 L 88.417 91.917 89.042 91.342 C 89.623 90.808,89.743 90.667,89.616 90.667 C 89.588 90.667,89.307 90.948,88.991 91.292 M44.539 194.167 C 44.539 194.487,44.573 194.619,44.615 194.458 C 44.657 194.298,44.657 194.035,44.615 193.875 C 44.573 193.715,44.539 193.846,44.539 194.167 M44.539 205.833 C 44.539 206.154,44.573 206.285,44.615 206.125 C 44.657 205.965,44.657 205.702,44.615 205.542 C 44.573 205.381,44.539 205.512,44.539 205.833 M200.406 248.875 L 199.917 249.417 200.458 248.927 C 200.963 248.471,201.077 248.333,200.948 248.333 C 200.919 248.333,200.675 248.577,200.406 248.875 M196.495 252.958 L 195.417 254.083 196.542 253.005 C 197.587 252.003,197.743 251.833,197.620 251.833 C 197.595 251.833,197.088 252.340,196.495 252.958 M132.392 272.917 C 132.392 273.742,132.420 274.100,132.455 273.713 C 132.490 273.327,132.490 272.652,132.456 272.213 C 132.422 271.775,132.393 272.092,132.392 272.917 M132.392 275.917 C 132.392 276.742,132.420 277.100,132.455 276.713 C 132.490 276.327,132.490 275.652,132.456 275.213 C 132.422 274.775,132.393 275.092,132.392 275.917 M132.539 282.167 C 132.539 282.487,132.573 282.619,132.615 282.458 C 132.657 282.298,132.657 282.035,132.615 281.875 C 132.573 281.715,132.539 281.846,132.539 282.167 M132.872 290.333 C 132.872 290.654,132.906 290.785,132.948 290.625 C 132.990 290.465,132.990 290.202,132.948 290.042 C 132.906 289.881,132.872 290.012,132.872 290.333 M133.057 295.917 C 133.058 296.650,133.087 296.929,133.122 296.537 C 133.157 296.145,133.157 295.545,133.121 295.204 C 133.085 294.863,133.057 295.183,133.057 295.917 M186.414 316.333 C 186.414 326.096,186.434 330.090,186.458 325.208 C 186.483 320.327,186.483 312.340,186.458 307.458 C 186.434 302.577,186.414 306.571,186.414 316.333 M85.500 305.052 C 85.500 305.081,85.744 305.325,86.042 305.594 L 86.583 306.083 86.094 305.542 C 85.638 305.037,85.500 304.923,85.500 305.052 M310.906 308.708 L 310.417 309.250 310.958 308.760 C 311.463 308.304,311.577 308.167,311.448 308.167 C 311.419 308.167,311.175 308.410,310.906 308.708 M90.083 309.833 C 90.812 310.567,91.446 311.167,91.492 311.167 C 91.538 311.167,90.979 310.567,90.250 309.833 C 89.521 309.100,88.887 308.500,88.841 308.500 C 88.795 308.500,89.354 309.100,90.083 309.833 M308.658 310.958 L 308.083 311.583 308.708 311.009 C 309.052 310.693,309.333 310.412,309.333 310.384 C 309.333 310.257,309.192 310.377,308.658 310.958 M94.000 313.552 C 94.000 313.581,94.244 313.825,94.542 314.094 L 95.083 314.583 94.594 314.042 C 94.138 313.537,94.000 313.423,94.000 313.552 M194.042 355.448 C 194.202 355.490,194.465 355.490,194.625 355.448 C 194.785 355.406,194.654 355.372,194.333 355.372 C 194.012 355.372,193.881 355.406,194.042 355.448 M205.542 355.448 C 205.702 355.490,205.965 355.490,206.125 355.448 C 206.285 355.406,206.154 355.372,205.833 355.372 C 205.512 355.372,205.381 355.406,205.542 355.448 " stroke="none" fill="#5e4418" fill-rule="evenodd"></path><path id="path3" d="M199.625 44.451 C 199.831 44.491,200.169 44.491,200.375 44.451 C 200.581 44.411,200.412 44.379,200.000 44.379 C 199.588 44.379,199.419 44.411,199.625 44.451 M192.627 44.618 C 192.834 44.658,193.134 44.656,193.294 44.615 C 193.453 44.573,193.283 44.540,192.917 44.542 C 192.550 44.544,192.420 44.578,192.627 44.618 M206.794 44.618 C 207.001 44.658,207.301 44.656,207.460 44.615 C 207.620 44.573,207.450 44.540,207.083 44.542 C 206.717 44.544,206.586 44.578,206.794 44.618 M189.375 44.782 C 189.535 44.823,189.798 44.823,189.958 44.782 C 190.119 44.740,189.987 44.705,189.667 44.705 C 189.346 44.705,189.215 44.740,189.375 44.782 M210.042 44.782 C 210.202 44.823,210.465 44.823,210.625 44.782 C 210.785 44.740,210.654 44.705,210.333 44.705 C 210.012 44.705,209.881 44.740,210.042 44.782 M187.042 44.948 C 187.202 44.990,187.465 44.990,187.625 44.948 C 187.785 44.906,187.654 44.872,187.333 44.872 C 187.012 44.872,186.881 44.906,187.042 44.948 M212.375 44.948 C 212.535 44.990,212.798 44.990,212.958 44.948 C 213.119 44.906,212.987 44.872,212.667 44.872 C 212.346 44.872,212.215 44.906,212.375 44.948 M214.375 45.115 C 214.535 45.157,214.798 45.157,214.958 45.115 C 215.119 45.073,214.987 45.039,214.667 45.039 C 214.346 45.039,214.215 45.073,214.375 45.115 M186.580 91.500 C 186.580 101.629,186.600 105.773,186.625 100.708 C 186.649 95.644,186.649 87.356,186.625 82.292 C 186.600 77.227,186.580 81.371,186.580 91.500 M229.747 90.917 C 229.747 100.725,229.767 104.713,229.792 99.779 C 229.816 94.845,229.816 86.820,229.792 81.946 C 229.767 77.071,229.747 81.108,229.747 90.917 M306.417 86.833 C 306.868 87.292,307.275 87.667,307.321 87.667 C 307.367 87.667,307.035 87.292,306.583 86.833 C 306.132 86.375,305.725 86.000,305.679 86.000 C 305.633 86.000,305.965 86.375,306.417 86.833 M92.995 87.292 L 91.917 88.417 93.042 87.338 C 93.660 86.745,94.167 86.239,94.167 86.213 C 94.167 86.090,93.997 86.247,92.995 87.292 M87.246 93.042 L 86.083 94.250 87.292 93.088 C 88.414 92.008,88.576 91.833,88.454 91.833 C 88.428 91.833,87.885 92.377,87.246 93.042 M313.160 93.542 C 313.850 94.278,314.000 94.410,314.000 94.285 C 314.000 94.258,313.644 93.902,313.208 93.493 L 312.417 92.750 313.160 93.542 M137.749 131.417 L 137.750 153.083 179.250 153.084 L 220.750 153.084 179.292 153.042 L 137.835 152.999 137.791 131.375 L 137.748 109.750 137.749 131.417 M283.205 115.667 C 283.205 115.987,283.240 116.119,283.282 115.958 C 283.323 115.798,283.323 115.535,283.282 115.375 C 283.240 115.215,283.205 115.346,283.205 115.667 M283.709 128.250 C 283.711 128.617,283.745 128.747,283.785 128.540 C 283.824 128.332,283.823 128.032,283.781 127.873 C 283.739 127.714,283.707 127.883,283.709 128.250 M283.705 137.167 C 283.705 137.487,283.740 137.619,283.782 137.458 C 283.823 137.298,283.823 137.035,283.782 136.875 C 283.740 136.715,283.705 136.846,283.705 137.167 M214.906 159.875 L 214.417 160.417 214.958 159.927 C 215.463 159.471,215.577 159.333,215.448 159.333 C 215.419 159.333,215.175 159.577,214.906 159.875 M213.158 161.792 L 212.583 162.417 213.208 161.842 C 213.790 161.308,213.910 161.167,213.783 161.167 C 213.755 161.167,213.474 161.448,213.158 161.792 M208.909 166.375 L 208.250 167.083 208.958 166.425 C 209.617 165.812,209.743 165.667,209.617 165.667 C 209.590 165.667,209.271 165.985,208.909 166.375 M205.324 170.292 L 204.750 170.917 205.375 170.342 C 205.957 169.808,206.077 169.667,205.949 169.667 C 205.922 169.667,205.640 169.948,205.324 170.292 M45.205 183.833 C 45.205 184.154,45.240 184.285,45.282 184.125 C 45.323 183.965,45.323 183.702,45.282 183.542 C 45.240 183.381,45.205 183.512,45.205 183.833 M355.039 187.333 C 355.039 187.654,355.073 187.785,355.115 187.625 C 355.157 187.465,355.157 187.202,355.115 187.042 C 355.073 186.881,355.039 187.012,355.039 187.333 M44.872 187.500 C 44.872 187.821,44.906 187.952,44.948 187.792 C 44.990 187.631,44.990 187.369,44.948 187.208 C 44.906 187.048,44.872 187.179,44.872 187.500 M355.209 189.750 C 355.211 190.117,355.245 190.247,355.285 190.040 C 355.324 189.832,355.323 189.532,355.281 189.373 C 355.239 189.214,355.207 189.383,355.209 189.750 M44.705 190.000 C 44.705 190.321,44.740 190.452,44.782 190.292 C 44.823 190.131,44.823 189.869,44.782 189.708 C 44.740 189.548,44.705 189.679,44.705 190.000 M355.375 192.917 C 355.377 193.283,355.411 193.414,355.451 193.206 C 355.491 192.999,355.490 192.699,355.448 192.540 C 355.406 192.380,355.374 192.550,355.375 192.917 M355.545 200.000 C 355.545 200.412,355.578 200.581,355.618 200.375 C 355.657 200.169,355.657 199.831,355.618 199.625 C 355.578 199.419,355.545 199.588,355.545 200.000 M355.372 207.000 C 355.372 207.321,355.406 207.452,355.448 207.292 C 355.490 207.131,355.490 206.869,355.448 206.708 C 355.406 206.548,355.372 206.679,355.372 207.000 M44.705 210.000 C 44.705 210.321,44.740 210.452,44.782 210.292 C 44.823 210.131,44.823 209.869,44.782 209.708 C 44.740 209.548,44.705 209.679,44.705 210.000 M355.209 210.250 C 355.211 210.617,355.245 210.747,355.285 210.540 C 355.324 210.332,355.323 210.032,355.281 209.873 C 355.239 209.714,355.207 209.883,355.209 210.250 M355.039 212.667 C 355.039 212.987,355.073 213.119,355.115 212.958 C 355.157 212.798,355.157 212.535,355.115 212.375 C 355.073 212.215,355.039 212.346,355.039 212.667 M45.205 216.167 C 45.205 216.487,45.240 216.619,45.282 216.458 C 45.323 216.298,45.323 216.035,45.282 215.875 C 45.240 215.715,45.205 215.846,45.205 216.167 M203.491 245.458 L 202.917 246.083 203.542 245.509 C 203.885 245.193,204.167 244.912,204.167 244.884 C 204.167 244.757,204.026 244.877,203.491 245.458 M198.994 250.292 L 198.083 251.250 199.042 250.339 C 199.569 249.838,200.000 249.407,200.000 249.381 C 200.000 249.257,199.841 249.401,198.994 250.292 M195.333 254.208 C 195.333 254.277,214.815 254.315,238.625 254.293 C 262.435 254.270,274.904 254.233,266.333 254.209 C 224.703 254.096,195.333 254.095,195.333 254.208 M132.539 281.167 C 132.539 281.487,132.573 281.619,132.615 281.458 C 132.657 281.298,132.657 281.035,132.615 280.875 C 132.573 280.715,132.539 280.846,132.539 281.167 M132.705 285.167 C 132.705 285.487,132.740 285.619,132.782 285.458 C 132.823 285.298,132.823 285.035,132.782 284.875 C 132.740 284.715,132.705 284.846,132.705 285.167 M132.875 289.250 C 132.877 289.617,132.911 289.747,132.951 289.540 C 132.991 289.332,132.990 289.032,132.948 288.873 C 132.906 288.714,132.874 288.883,132.875 289.250 M133.052 293.750 C 133.053 294.300,133.084 294.505,133.121 294.205 C 133.158 293.906,133.157 293.456,133.119 293.205 C 133.081 292.955,133.051 293.200,133.052 293.750 M243.708 297.458 C 250.744 297.482,262.256 297.482,269.292 297.458 C 276.327 297.434,270.571 297.415,256.500 297.415 C 242.429 297.415,236.673 297.434,243.708 297.458 M146.471 298.625 C 153.835 298.649,165.835 298.649,173.138 298.625 C 180.441 298.601,174.417 298.581,159.750 298.581 C 145.083 298.581,139.108 298.601,146.471 298.625 M312.579 307.042 L 311.417 308.250 312.625 307.088 C 313.747 306.008,313.909 305.833,313.787 305.833 C 313.762 305.833,313.218 306.377,312.579 307.042 M87.583 307.333 C 88.220 307.975,88.779 308.500,88.824 308.500 C 88.870 308.500,88.387 307.975,87.750 307.333 C 87.113 306.692,86.555 306.167,86.509 306.167 C 86.463 306.167,86.947 306.692,87.583 307.333 M92.583 312.333 C 93.220 312.975,93.779 313.500,93.824 313.500 C 93.870 313.500,93.387 312.975,92.750 312.333 C 92.113 311.692,91.555 311.167,91.509 311.167 C 91.463 311.167,91.947 311.692,92.583 312.333 M306.912 312.708 L 305.750 313.917 306.958 312.754 C 308.081 311.675,308.243 311.500,308.121 311.500 C 308.095 311.500,307.551 312.044,306.912 312.708 M197.542 334.125 C 203.660 334.149,213.673 334.149,219.792 334.125 C 225.910 334.101,220.904 334.081,208.667 334.081 C 196.429 334.081,191.423 334.101,197.542 334.125 M214.208 354.948 C 214.369 354.990,214.631 354.990,214.792 354.948 C 214.952 354.906,214.821 354.872,214.500 354.872 C 214.179 354.872,214.048 354.906,214.208 354.948 M212.208 355.115 C 212.369 355.157,212.631 355.157,212.792 355.115 C 212.952 355.073,212.821 355.039,212.500 355.039 C 212.179 355.039,212.048 355.073,212.208 355.115 M189.708 355.282 C 189.869 355.323,190.131 355.323,190.292 355.282 C 190.452 355.240,190.321 355.205,190.000 355.205 C 189.679 355.205,189.548 355.240,189.708 355.282 M209.708 355.282 C 209.869 355.323,210.131 355.323,210.292 355.282 C 210.452 355.240,210.321 355.205,210.000 355.205 C 209.679 355.205,209.548 355.240,209.708 355.282 M193.042 355.448 C 193.202 355.490,193.465 355.490,193.625 355.448 C 193.785 355.406,193.654 355.372,193.333 355.372 C 193.012 355.372,192.881 355.406,193.042 355.448 M199.708 355.615 C 199.869 355.657,200.131 355.657,200.292 355.615 C 200.452 355.573,200.321 355.539,200.000 355.539 C 199.679 355.539,199.548 355.573,199.708 355.615 " stroke="none" fill="#3b2b14" fill-rule="evenodd"></path><path id="path4" d="M194.375 44.619 C 194.627 44.658,195.040 44.658,195.292 44.619 C 195.544 44.581,195.338 44.550,194.833 44.550 C 194.329 44.550,194.123 44.581,194.375 44.619 M204.708 44.619 C 204.960 44.658,205.373 44.658,205.625 44.619 C 205.877 44.581,205.671 44.550,205.167 44.550 C 204.662 44.550,204.456 44.581,204.708 44.619 M190.875 44.782 C 191.035 44.823,191.298 44.823,191.458 44.782 C 191.619 44.740,191.487 44.705,191.167 44.705 C 190.846 44.705,190.715 44.740,190.875 44.782 M208.542 44.782 C 208.702 44.823,208.965 44.823,209.125 44.782 C 209.285 44.740,209.154 44.705,208.833 44.705 C 208.512 44.705,208.381 44.740,208.542 44.782 M305.667 86.250 C 305.978 86.571,306.270 86.833,306.315 86.833 C 306.361 86.833,306.144 86.571,305.833 86.250 C 305.522 85.929,305.230 85.667,305.185 85.667 C 305.139 85.667,305.356 85.929,305.667 86.250 M93.824 86.625 L 93.250 87.250 93.875 86.676 C 94.457 86.141,94.577 86.000,94.449 86.000 C 94.422 86.000,94.140 86.281,93.824 86.625 M308.667 89.046 C 308.667 89.071,309.248 89.652,309.958 90.338 L 311.250 91.583 310.004 90.292 C 308.847 89.092,308.667 88.924,308.667 89.046 M90.073 90.208 L 89.583 90.750 90.125 90.260 C 90.423 89.991,90.667 89.748,90.667 89.719 C 90.667 89.590,90.529 89.703,90.073 90.208 M86.575 93.875 L 85.917 94.583 86.625 93.925 C 87.284 93.312,87.410 93.167,87.284 93.167 C 87.257 93.167,86.938 93.485,86.575 93.875 M313.667 94.250 C 313.978 94.571,314.270 94.833,314.315 94.833 C 314.361 94.833,314.144 94.571,313.833 94.250 C 313.522 93.929,313.230 93.667,313.185 93.667 C 313.139 93.667,313.356 93.929,313.667 94.250 M137.577 109.875 C 137.533 109.990,137.517 119.796,137.541 131.667 L 137.585 153.250 137.626 131.542 L 137.667 109.834 162.125 109.792 L 186.583 109.749 162.120 109.708 C 142.672 109.675,137.640 109.709,137.577 109.875 M283.220 113.500 C 283.220 114.096,283.250 114.340,283.287 114.042 C 283.324 113.744,283.324 113.256,283.287 112.958 C 283.250 112.660,283.220 112.904,283.220 113.500 M283.379 118.167 C 283.379 118.579,283.411 118.748,283.451 118.542 C 283.491 118.335,283.491 117.998,283.451 117.792 C 283.411 117.585,283.379 117.754,283.379 118.167 M283.542 122.250 C 283.544 122.617,283.578 122.747,283.618 122.540 C 283.658 122.332,283.656 122.032,283.615 121.873 C 283.573 121.714,283.540 121.883,283.542 122.250 M283.712 126.333 C 283.712 126.746,283.745 126.915,283.784 126.708 C 283.824 126.502,283.824 126.165,283.784 125.958 C 283.745 125.752,283.712 125.921,283.712 126.333 M62.500 127.500 C 62.313 127.867,62.197 128.167,62.243 128.167 C 62.289 128.167,62.480 127.867,62.667 127.500 C 62.854 127.133,62.969 126.833,62.923 126.833 C 62.878 126.833,62.687 127.133,62.500 127.500 M217.073 157.375 L 216.583 157.917 217.125 157.427 C 217.630 156.971,217.743 156.833,217.615 156.833 C 217.586 156.833,217.342 157.077,217.073 157.375 M213.324 161.458 L 212.750 162.083 213.375 161.509 C 213.957 160.974,214.077 160.833,213.949 160.833 C 213.922 160.833,213.640 161.115,213.324 161.458 M209.324 165.792 L 208.750 166.417 209.375 165.842 C 209.957 165.308,210.077 165.167,209.949 165.167 C 209.922 165.167,209.640 165.448,209.324 165.792 M270.740 167.208 L 270.250 167.750 270.792 167.260 C 271.297 166.804,271.410 166.667,271.281 166.667 C 271.252 166.667,271.009 166.910,270.740 167.208 M207.240 168.042 L 206.750 168.583 207.292 168.094 C 207.797 167.638,207.910 167.500,207.781 167.500 C 207.752 167.500,207.509 167.744,207.240 168.042 M205.491 169.958 L 204.917 170.583 205.542 170.009 C 205.885 169.693,206.167 169.412,206.167 169.384 C 206.167 169.257,206.026 169.377,205.491 169.958 M195.240 181.542 L 194.750 182.083 195.292 181.594 C 195.797 181.138,195.910 181.000,195.781 181.000 C 195.752 181.000,195.509 181.244,195.240 181.542 M44.872 189.000 C 44.872 189.321,44.906 189.452,44.948 189.292 C 44.990 189.131,44.990 188.869,44.948 188.708 C 44.906 188.548,44.872 188.679,44.872 189.000 M355.205 191.167 C 355.205 191.487,355.240 191.619,355.282 191.458 C 355.323 191.298,355.323 191.035,355.282 190.875 C 355.240 190.715,355.205 190.846,355.205 191.167 M44.709 191.583 C 44.711 191.950,44.745 192.080,44.785 191.873 C 44.824 191.666,44.823 191.366,44.781 191.206 C 44.739 191.047,44.707 191.217,44.709 191.583 M355.383 194.833 C 355.383 195.338,355.415 195.544,355.453 195.292 C 355.491 195.040,355.491 194.627,355.453 194.375 C 355.415 194.123,355.383 194.329,355.383 194.833 M44.555 195.750 C 44.555 196.392,44.586 196.634,44.622 196.288 C 44.658 195.942,44.657 195.417,44.620 195.121 C 44.583 194.825,44.554 195.108,44.555 195.750 M44.555 204.250 C 44.555 204.892,44.586 205.134,44.622 204.788 C 44.658 204.442,44.657 203.917,44.620 203.621 C 44.583 203.325,44.554 203.608,44.555 204.250 M355.383 205.167 C 355.383 205.671,355.415 205.877,355.453 205.625 C 355.491 205.373,355.491 204.960,355.453 204.708 C 355.415 204.456,355.383 204.662,355.383 205.167 M44.705 208.333 C 44.705 208.654,44.740 208.785,44.782 208.625 C 44.823 208.465,44.823 208.202,44.782 208.042 C 44.740 207.881,44.705 208.012,44.705 208.333 M355.205 208.833 C 355.205 209.154,355.240 209.285,355.282 209.125 C 355.323 208.965,355.323 208.702,355.282 208.542 C 355.240 208.381,355.205 208.512,355.205 208.833 M44.872 211.000 C 44.872 211.321,44.906 211.452,44.948 211.292 C 44.990 211.131,44.990 210.869,44.948 210.708 C 44.906 210.548,44.872 210.679,44.872 211.000 M219.906 226.875 L 219.417 227.417 219.958 226.927 C 220.463 226.471,220.577 226.333,220.448 226.333 C 220.419 226.333,220.175 226.577,219.906 226.875 M217.573 229.542 L 217.083 230.083 217.625 229.594 C 218.130 229.138,218.243 229.000,218.115 229.000 C 218.086 229.000,217.842 229.244,217.573 229.542 M146.906 238.375 L 146.417 238.917 146.958 238.427 C 147.256 238.158,147.500 237.914,147.500 237.885 C 147.500 237.757,147.362 237.870,146.906 238.375 M145.324 240.125 L 144.750 240.750 145.375 240.176 C 145.957 239.641,146.077 239.500,145.949 239.500 C 145.922 239.500,145.640 239.781,145.324 240.125 M143.742 241.875 L 143.083 242.583 143.792 241.925 C 144.450 241.312,144.577 241.167,144.450 241.167 C 144.423 241.167,144.105 241.485,143.742 241.875 M206.406 242.375 L 205.917 242.917 206.458 242.427 C 206.963 241.971,207.077 241.833,206.948 241.833 C 206.919 241.833,206.675 242.077,206.406 242.375 M50.690 243.333 C 50.690 243.471,50.755 243.733,50.833 243.917 C 50.924 244.127,50.977 244.158,50.977 244.000 C 50.977 243.862,50.912 243.600,50.833 243.417 C 50.743 243.207,50.690 243.176,50.690 243.333 M141.906 243.875 L 141.417 244.417 141.958 243.927 C 142.256 243.658,142.500 243.414,142.500 243.385 C 142.500 243.257,142.362 243.370,141.906 243.875 M203.158 245.958 L 202.583 246.583 203.208 246.009 C 203.552 245.693,203.833 245.412,203.833 245.384 C 203.833 245.257,203.692 245.377,203.158 245.958 M201.491 247.792 L 200.917 248.417 201.542 247.842 C 201.885 247.526,202.167 247.245,202.167 247.217 C 202.167 247.090,202.026 247.210,201.491 247.792 M198.494 250.958 L 197.583 251.917 198.542 251.006 C 199.069 250.505,199.500 250.073,199.500 250.047 C 199.500 249.924,199.341 250.068,198.494 250.958 M205.638 254.125 C 211.260 254.149,220.410 254.149,225.971 254.125 C 231.533 254.101,226.933 254.081,215.750 254.081 C 204.567 254.081,200.016 254.101,205.638 254.125 M282.041 275.791 L 282.000 297.499 256.458 297.541 L 230.917 297.583 230.874 315.876 L 230.832 334.169 208.591 334.126 C 196.358 334.103,186.407 334.140,186.476 334.209 C 186.545 334.278,196.572 334.316,208.759 334.292 L 230.917 334.250 230.959 315.958 L 231.001 297.667 256.506 297.667 C 276.756 297.667,282.027 297.624,282.090 297.458 C 282.133 297.344,282.149 287.537,282.126 275.667 L 282.082 254.083 282.041 275.791 M58.181 263.583 C 58.181 263.675,58.324 264.012,58.500 264.333 C 58.676 264.654,58.819 264.842,58.819 264.750 C 58.819 264.658,58.676 264.321,58.500 264.000 C 58.324 263.679,58.181 263.492,58.181 263.583 M132.539 267.167 C 132.539 267.487,132.573 267.619,132.615 267.458 C 132.657 267.298,132.657 267.035,132.615 266.875 C 132.573 266.715,132.539 266.846,132.539 267.167 M132.385 270.583 C 132.386 271.133,132.417 271.338,132.454 271.039 C 132.491 270.739,132.490 270.289,132.452 270.039 C 132.414 269.788,132.384 270.033,132.385 270.583 M62.000 271.500 C 62.187 271.867,62.378 272.167,62.423 272.167 C 62.469 272.167,62.354 271.867,62.167 271.500 C 61.980 271.133,61.789 270.833,61.743 270.833 C 61.697 270.833,61.813 271.133,62.000 271.500 M132.388 278.417 C 132.389 279.058,132.419 279.300,132.455 278.955 C 132.491 278.609,132.490 278.084,132.454 277.788 C 132.417 277.492,132.387 277.775,132.388 278.417 M66.583 279.667 C 66.726 279.942,66.879 280.167,66.925 280.167 C 66.971 280.167,66.892 279.942,66.750 279.667 C 66.608 279.392,66.454 279.167,66.408 279.167 C 66.362 279.167,66.441 279.392,66.583 279.667 M132.548 283.417 C 132.549 283.875,132.581 284.043,132.620 283.789 C 132.658 283.536,132.657 283.161,132.617 282.956 C 132.578 282.751,132.546 282.958,132.548 283.417 M70.254 285.428 C 70.409 285.709,70.684 286.121,70.865 286.344 L 71.194 286.750 70.913 286.239 C 70.758 285.958,70.483 285.545,70.302 285.322 L 69.972 284.917 70.254 285.428 M132.724 287.750 C 132.724 288.483,132.754 288.763,132.789 288.371 C 132.824 287.979,132.824 287.379,132.788 287.037 C 132.752 286.696,132.723 287.017,132.724 287.750 M74.333 291.333 C 74.529 291.608,74.727 291.833,74.773 291.833 C 74.819 291.833,74.696 291.608,74.500 291.333 C 74.304 291.058,74.106 290.833,74.061 290.833 C 74.015 290.833,74.138 291.058,74.333 291.333 M132.896 292.583 C 132.896 293.592,132.924 293.983,132.957 293.452 C 132.990 292.922,132.990 292.097,132.956 291.619 C 132.922 291.141,132.895 291.575,132.896 292.583 M133.066 297.917 L 133.083 298.750 159.708 298.751 L 186.333 298.752 159.759 298.709 L 133.185 298.666 133.117 297.874 L 133.049 297.083 133.066 297.917 M82.000 301.052 C 82.000 301.081,82.244 301.325,82.542 301.594 L 83.083 302.083 82.594 301.542 C 82.138 301.037,82.000 300.923,82.000 301.052 M85.333 304.750 C 85.831 305.254,86.276 305.667,86.322 305.667 C 86.368 305.667,85.998 305.254,85.500 304.750 C 85.002 304.246,84.557 303.833,84.511 303.833 C 84.466 303.833,84.835 304.246,85.333 304.750 M313.324 306.125 L 312.750 306.750 313.375 306.176 C 313.719 305.860,314.000 305.578,314.000 305.551 C 314.000 305.423,313.859 305.543,313.324 306.125 M87.083 306.667 C 87.441 307.033,87.772 307.333,87.818 307.333 C 87.863 307.333,87.608 307.033,87.250 306.667 C 86.892 306.300,86.562 306.000,86.516 306.000 C 86.470 306.000,86.725 306.300,87.083 306.667 M90.167 309.750 C 90.757 310.346,91.278 310.833,91.324 310.833 C 91.370 310.833,90.924 310.346,90.333 309.750 C 89.743 309.154,89.222 308.667,89.176 308.667 C 89.130 308.667,89.576 309.154,90.167 309.750 M309.824 309.792 L 309.250 310.417 309.875 309.842 C 310.219 309.526,310.500 309.245,310.500 309.217 C 310.500 309.090,310.359 309.210,309.824 309.792 M93.250 312.833 C 93.608 313.200,93.938 313.500,93.984 313.500 C 94.030 313.500,93.775 313.200,93.417 312.833 C 93.059 312.467,92.728 312.167,92.682 312.167 C 92.637 312.167,92.892 312.467,93.250 312.833 M306.075 313.375 L 305.417 314.083 306.125 313.425 C 306.784 312.812,306.910 312.667,306.784 312.667 C 306.757 312.667,306.438 312.985,306.075 313.375 M95.083 314.500 C 95.535 314.958,95.942 315.333,95.987 315.333 C 96.033 315.333,95.701 314.958,95.250 314.500 C 94.799 314.042,94.392 313.667,94.346 313.667 C 94.300 313.667,94.632 314.042,95.083 314.500 M97.833 316.885 C 97.833 316.914,98.077 317.158,98.375 317.427 L 98.917 317.917 98.427 317.375 C 97.971 316.870,97.833 316.757,97.833 316.885 M108.167 325.227 C 108.167 325.273,108.392 325.471,108.667 325.667 C 108.942 325.862,109.167 325.985,109.167 325.939 C 109.167 325.894,108.942 325.696,108.667 325.500 C 108.392 325.304,108.167 325.181,108.167 325.227 M113.656 329.135 C 113.879 329.316,114.291 329.591,114.572 329.746 L 115.083 330.028 114.678 329.698 C 114.455 329.517,114.042 329.242,113.761 329.087 L 113.250 328.806 113.656 329.135 M119.833 333.075 C 119.833 333.121,120.058 333.274,120.333 333.417 C 120.608 333.559,120.833 333.638,120.833 333.592 C 120.833 333.546,120.608 333.392,120.333 333.250 C 120.058 333.108,119.833 333.029,119.833 333.075 M272.458 337.345 C 272.115 337.526,271.833 337.712,271.833 337.757 C 271.833 337.803,272.133 337.687,272.500 337.500 C 272.867 337.313,273.167 337.124,273.167 337.080 C 273.167 336.971,273.165 336.971,272.458 337.345 M127.833 337.578 C 127.833 337.624,128.208 337.851,128.667 338.083 C 129.125 338.316,129.500 338.468,129.500 338.422 C 129.500 338.376,129.125 338.149,128.667 337.917 C 128.208 337.684,127.833 337.532,127.833 337.578 M135.667 341.500 C 135.987 341.676,136.325 341.819,136.417 341.819 C 136.508 341.819,136.321 341.676,136.000 341.500 C 135.679 341.324,135.342 341.181,135.250 341.181 C 135.158 341.181,135.346 341.324,135.667 341.500 M156.083 349.167 C 156.267 349.245,156.529 349.310,156.667 349.310 C 156.824 349.310,156.793 349.257,156.583 349.167 C 156.400 349.088,156.137 349.023,156.000 349.023 C 155.842 349.023,155.873 349.076,156.083 349.167 M188.708 355.115 C 188.869 355.157,189.131 355.157,189.292 355.115 C 189.452 355.073,189.321 355.039,189.000 355.039 C 188.679 355.039,188.548 355.073,188.708 355.115 M210.708 355.115 C 210.869 355.157,211.131 355.157,211.292 355.115 C 211.452 355.073,211.321 355.039,211.000 355.039 C 210.679 355.039,210.548 355.073,210.708 355.115 M191.375 355.282 C 191.535 355.323,191.798 355.323,191.958 355.282 C 192.119 355.240,191.987 355.205,191.667 355.205 C 191.346 355.205,191.215 355.240,191.375 355.282 M208.127 355.285 C 208.334 355.324,208.634 355.323,208.794 355.281 C 208.953 355.239,208.783 355.207,208.417 355.209 C 208.050 355.211,207.920 355.245,208.127 355.285 M195.292 355.454 C 195.590 355.491,196.077 355.491,196.375 355.454 C 196.673 355.417,196.429 355.387,195.833 355.387 C 195.237 355.387,194.994 355.417,195.292 355.454 M203.621 355.454 C 203.917 355.490,204.442 355.491,204.788 355.455 C 205.134 355.419,204.892 355.389,204.250 355.388 C 203.608 355.387,203.325 355.417,203.621 355.454 " stroke="none" fill="#7c642b" fill-rule="evenodd"></path></g></svg>